<svg id="Layer_1" data-name="Layer 1" xmlns="http://www.w3.org/2000/svg" viewBox="0 0 110 110"><defs><style>.cls-1{fill:#e11f22;}</style></defs><title>aggrid</title><g id="Desktop-Copy"><g id="logo-inverted"><g id="ag"><g id="Combined-Shape"><path id="path-1" class="cls-1" d="M13.13,50.41V34.27a6,6,0,0,1,3-5.17L52,8.37a6,6,0,0,1,6,0L93.89,29.1a6,6,0,0,1,3,5.17V62.35H84.93V44.84a6,6,0,0,0-6-6H61.45a6,6,0,0,0-6,6V61.56a6,6,0,0,0,6,6H79.76V72.3a1.2,1.2,0,0,1-1.2,1.2H60.65v5.17H79a6,6,0,0,0,6-6V67.51H96.87v8.22a6,6,0,0,1-3,5.17L58,101.63a6,6,0,0,1-6,0L16.11,80.9a6,6,0,0,1-3-5.17V55.58h10.5v6a6,6,0,0,0,6,6H52.69V44.84a6,6,0,0,0-6-6H23.63V44H46.32a1.19,1.19,0,0,1,1.19,1.19v5.18Z"/></g><rect id="g" class="cls-1" x="60.65" y="44.04" width="19.11" height="18.31" rx="1.19" ry="1.19"/><path id="Combined-Shape-2" data-name="Combined-Shape" class="cls-1" d="M28.81,55.58h18.7v6.77H30a1.19,1.19,0,0,1-1.19-1.19Z"/></g></g></g></svg>