<svg id="Layer_1" data-name="Layer 1" xmlns="http://www.w3.org/2000/svg" viewBox="0 0 110 110"><defs><style>.cls-1{fill:#4285f4;}</style></defs><title>aws-blue</title><path class="cls-1" d="M33,53.33a10.59,10.59,0,0,0,.37,3,18.34,18.34,0,0,0,1.09,2.44,1.52,1.52,0,0,1,.24.78,1.36,1.36,0,0,1-.65,1L31.87,62a1.63,1.63,0,0,1-.88.3,1.58,1.58,0,0,1-1-.47,10.59,10.59,0,0,1-1.22-1.6c-.34-.57-.68-1.22-1.05-2a12.57,12.57,0,0,1-10,4.69,9.3,9.3,0,0,1-6.79-2.45A8.73,8.73,0,0,1,8.42,54a8.75,8.75,0,0,1,3.09-7,12.37,12.37,0,0,1,8.31-2.65,28.44,28.44,0,0,1,3.6.27c1.26.17,2.55.45,3.91.75V42.87c0-2.58-.55-4.38-1.6-5.43s-2.92-1.56-5.53-1.56a15.78,15.78,0,0,0-3.67.44,27,27,0,0,0-3.67,1.16,12.17,12.17,0,0,1-1.18.44,2,2,0,0,1-.55.1c-.47,0-.71-.34-.71-1.05V35.3a2.1,2.1,0,0,1,.24-1.18,2.51,2.51,0,0,1,.95-.72,19.17,19.17,0,0,1,4.28-1.52,20.13,20.13,0,0,1,5.29-.65c4,0,7,.92,8.89,2.75s2.82,4.62,2.82,8.35v11ZM19.18,58.49a11.16,11.16,0,0,0,3.49-.61A7.58,7.58,0,0,0,25.9,55.7a5.3,5.3,0,0,0,1.15-2.17,11.85,11.85,0,0,0,.34-3V49.15a28.39,28.39,0,0,0-3.12-.57,24.88,24.88,0,0,0-3.19-.21A7.82,7.82,0,0,0,16,49.73a4.74,4.74,0,0,0-1.66,3.9,4.76,4.76,0,0,0,1.25,3.6A4.73,4.73,0,0,0,19.18,58.49Zm27.26,3.66a1.94,1.94,0,0,1-1.29-.33,2.78,2.78,0,0,1-.72-1.33l-8-26.24a5.69,5.69,0,0,1-.31-1.36.74.74,0,0,1,.82-.84h3.32a1.94,1.94,0,0,1,1.33.33,2.88,2.88,0,0,1,.68,1.33L48,56.18l5.29-22.47a2.44,2.44,0,0,1,.65-1.33,2.35,2.35,0,0,1,1.36-.33H58a2.09,2.09,0,0,1,1.36.33A2.29,2.29,0,0,1,60,33.71l5.37,22.74,5.87-22.74a2.91,2.91,0,0,1,.68-1.33,2.23,2.23,0,0,1,1.32-.33h3.16a.75.75,0,0,1,.85.84,4.14,4.14,0,0,1-.07.55,4.44,4.44,0,0,1-.24.85L68.77,60.53a2.6,2.6,0,0,1-.71,1.32,2.19,2.19,0,0,1-1.29.34H63.85a2,2,0,0,1-1.36-.34,2.39,2.39,0,0,1-.64-1.36L56.59,38.6,51.36,60.46a2.68,2.68,0,0,1-.65,1.36,2.13,2.13,0,0,1-1.35.33Zm43.62.92a22.33,22.33,0,0,1-5.23-.61,15.64,15.64,0,0,1-3.91-1.36,2.42,2.42,0,0,1-1-1,2.45,2.45,0,0,1-.2-.95V57.47c0-.71.27-1,.78-1a1.86,1.86,0,0,1,.61.1l.85.34a18.28,18.28,0,0,0,3.73,1.19,20.5,20.5,0,0,0,4,.4,9.16,9.16,0,0,0,5-1.12,3.65,3.65,0,0,0,1.76-3.22,3.32,3.32,0,0,0-.91-2.38A8.57,8.57,0,0,0,92.06,50l-4.92-1.53A10.32,10.32,0,0,1,81.71,45,8,8,0,0,1,80,40.06a7.54,7.54,0,0,1,.91-3.77,8.85,8.85,0,0,1,2.45-2.79,10.82,10.82,0,0,1,3.53-1.76,14.7,14.7,0,0,1,4.28-.58,17.4,17.4,0,0,1,2.27.14c.78.1,1.49.24,2.21.37s1.32.34,1.93.55a6.92,6.92,0,0,1,1.43.61,3.09,3.09,0,0,1,1,.84,1.88,1.88,0,0,1,.3,1.12v1.6c0,.71-.27,1.09-.78,1.09a3.61,3.61,0,0,1-1.29-.41,15.56,15.56,0,0,0-6.52-1.32,8.7,8.7,0,0,0-4.51,1,3.28,3.28,0,0,0-1.6,3,3.21,3.21,0,0,0,1,2.41A10.16,10.16,0,0,0,90.4,44l4.82,1.53a10.38,10.38,0,0,1,5.26,3.26A7.69,7.69,0,0,1,102,53.53a8.82,8.82,0,0,1-.88,3.94,9.39,9.39,0,0,1-2.48,3,10.88,10.88,0,0,1-3.77,1.9A16.3,16.3,0,0,1,90.06,63.07Z"/><path class="cls-1" d="M96.47,79.57C85.3,87.82,69.08,92.2,55.13,92.2A74.79,74.79,0,0,1,4.65,73c-1.05-1-.1-2.24,1.15-1.49a101.83,101.83,0,0,0,50.51,13.4A100.88,100.88,0,0,0,94.84,77C96.71,76.14,98.3,78.21,96.47,79.57Z"/><path class="cls-1" d="M101.12,74.27c-1.42-1.83-9.44-.88-13.07-.44C87,74,86.8,73,87.78,72.3c6.38-4.48,16.87-3.19,18.09-1.69s-.34,12-6.31,17c-.92.78-1.8.37-1.39-.65C99.53,83.64,102.55,76.07,101.12,74.27Z"/></svg>