<svg xmlns="http://www.w3.org/2000/svg" width="54" height="51" viewBox="0 0 54 51">
    <g fill="none" fill-rule="evenodd">
        <path fill="#4285F4" fill-rule="nonzero" d="M53.9 33.7v3.1l-.1-.1c-.7 7.8-7.3 14.1-15.2 14.1h-1.1l-.1-.1.1.1H20.6c3.4-2.1 6.3-4.9 8.6-8.1.1-.2.2-.3.2-.3s.1 0 .1.1c.6-.9 1.2-1.7 1.7-2.8h7.5c2.4 0 4.3-1.9 4.3-4.3s-1.9-4.3-4.3-4.3h-4.4c.3-1.8.5-3.6.5-5.5s-.2-3.8-.5-5.6h2.8l.1.1h1.4c2.4 0 4.3-1.9 4.3-4.3s-1.9-4.3-4.3-4.3h-7.5C28.6 6.9 24.9 3.1 20.5.4h18.1C46.5.4 53 6.5 53.9 14.2v3.2c-.3 3.1-1.6 5.9-3.5 8.2 1.9 2.2 3.2 5.1 3.5 8.1zm-27.8 5.9c2.7-4.1 4.2-8.9 4.2-14.1C30.4 11.7 19.1.4 5.2.4H.7v11.1h4.5c7.8 0 14.1 6.3 14.1 14.1 0 2.1-.5 4-1.3 5.8 0 0 0 .1-.1.1 0 .1 0 .1-.1.2v.3c-2.4 4.6-7.2 7.8-12.6 7.8H.7v11.1h4.5c8.7-.1 16.4-4.5 20.9-11.3z"/>
        <path d="M-24-26H76V74H-24z"/>
    </g>
</svg>
