<svg xmlns="http://www.w3.org/2000/svg" width="59" height="56" viewBox="0 0 59 56">
    <defs>
        <linearGradient id="a" x1="-81.772%" x2="104.16%" y1="-92.988%" y2="105.945%">
            <stop offset="0%" stop-color="#F9A03C"/>
            <stop offset="100%" stop-color="#F7974E"/>
        </linearGradient>
        <linearGradient id="b" x1="-258.33%" x2="98.471%" y1="-248.225%" y2="99.479%">
            <stop offset="0%" stop-color="#F9A03C"/>
            <stop offset="100%" stop-color="#F7974E"/>
        </linearGradient>
        <linearGradient id="c" x1="-225.107%" x2="93.628%" y1="-261.139%" y2="102.472%">
            <stop offset="0%" stop-color="#F9A03C"/>
            <stop offset="100%" stop-color="#F7974E"/>
        </linearGradient>
        <linearGradient id="d" x1="12.72%" x2="83.498%" y1="-3.053%" y2="91.201%">
            <stop offset="0%" stop-color="#F26D58"/>
            <stop offset="100%" stop-color="#F9A03C"/>
        </linearGradient>
        <linearGradient id="e" x1="15.006%" x2="119.489%" y1="4.787%" y2="73.259%">
            <stop offset="0%" stop-color="#B84E51"/>
            <stop offset="100%" stop-color="#F68E48"/>
        </linearGradient>
        <linearGradient id="f" x1="46.768%" x2="51.928%" y1="23.498%" y2="146.764%">
            <stop offset="0%" stop-color="#F9A03C"/>
            <stop offset="100%" stop-color="#F7974E"/>
        </linearGradient>
    </defs>
    <g fill="none" fill-rule="evenodd">
        <g fill-rule="nonzero">
            <path fill="url(#a)" d="M59.18 40.59c0-.22 0-.55.11-.77C59.29 39.6 40.81 22 40.81 22h-.44s18.7 19.8 18.81 18.59z" transform="translate(-.6 -.4)"/>
            <path fill="url(#b)" d="M19.8 34.54s0 .11 0 0c-.11.22-.11.22-.22.33-.55 1.21 8.25 9.9 8.91 8.8l.11-.11.11-.11c.66-.88-8.58-9.46-8.91-8.91z" transform="translate(-.6 -.4)"/>
            <path fill="url(#c)" d="M32.34 46.64s-.22.33-.33.55l8.58 8.58h.77c0 .11-8.14-8.69-9.02-9.13z" transform="translate(-.6 -.4)"/>
            <path fill="url(#d)" d="M59.29 39.71c-.44 8.91-7.81 16.17-16.83 16.17h-1.21l-9.02-8.91c.77-1.1 1.43-2.09 2.09-3.3h8.25c2.64 0 4.73-2.09 4.73-4.73 0-2.64-2.09-4.73-4.73-4.73h-4.84c.33-1.98.55-3.96.55-6.05s-.22-4.18-.55-6.16h2.97l18.7 18.37c-.11-.22-.11-.44-.11-.66zM5.72.44H.77v12.21h4.95c8.58 0 15.51 6.93 15.51 15.51 0 2.31-.55 4.51-1.43 6.49l8.91 8.8c2.97-4.4 4.62-9.68 4.62-15.4C33.44 12.87 21.01.44 5.72.44z" transform="translate(-.6 -.4)"/>
            <path fill="url(#e)" d="M42.46.44H22.55c4.84 2.97 8.91 7.15 11.66 12.21h8.25c2.64 0 4.73 2.09 4.73 4.73 0 2.64-2.09 4.73-4.73 4.73h-1.87l18.7 18.37c0-.55.11-.99.11-1.54 0-4.07-1.43-7.92-3.96-10.78 2.42-2.97 3.96-6.71 3.96-10.78C59.29 8.03 51.7.44 42.46.44z" transform="translate(-.6 -.4)"/>
            <path fill="url(#f)" d="M41.25 55.88H22.66c3.74-2.31 6.93-5.39 9.46-8.91l9.13 8.91zM28.71 43.56l-8.91-8.8c-2.53 5.28-7.92 9.02-14.08 9.02H.77v12.21h4.95c9.57-.11 18.04-4.95 22.99-12.43z" transform="translate(-.6 -.4)"/>
        </g>
        <path d="M-27-29H83V81H-27z"/>
        <path fill="#4285F4" fill-rule="nonzero" d="M58.69 36.67v3.41l-.11-.11c-.77 8.58-8.03 15.51-16.72 15.51h-1.21l-.11-.11.11.11H22.06c3.74-2.31 6.93-5.39 9.46-8.91.11-.22.22-.33.22-.33s.11 0 .11.11c.66-.99 1.32-1.87 1.87-3.08h8.25c2.64 0 4.73-2.09 4.73-4.73 0-2.64-2.09-4.73-4.73-4.73h-4.84c.33-1.98.55-3.96.55-6.05s-.22-4.18-.55-6.16h3.08l.11.11h1.54c2.64 0 4.73-2.09 4.73-4.73 0-2.64-2.09-4.73-4.73-4.73h-8.25C30.86 7.19 26.79 3.01 21.95.04h19.91c8.69 0 15.84 6.71 16.83 15.18v3.52c-.33 3.41-1.76 6.49-3.85 9.02 2.09 2.42 3.52 5.61 3.85 8.91zm-30.58 6.49v-.11.11c2.97-4.51 4.62-9.79 4.62-15.51C32.84 12.47 20.41.04 5.12.04H.17v12.21h4.95c8.58 0 15.51 6.93 15.51 15.51 0 2.31-.55 4.4-1.43 6.38 0 0 0 .11-.11.11 0 .11 0 .11-.11.22v.33c-2.64 5.06-7.92 8.58-13.86 8.58H.17v12.21h4.95c9.57-.11 18.04-4.95 22.99-12.43z"/>
    </g>
</svg>
