<?xml version="1.0" encoding="utf-8"?>
<!-- Generator: Adobe Illustrator 22.0.1, SVG Export Plug-In . SVG Version: 6.00 Build 0)  -->
<svg version="1.1" id="Layer_1" xmlns="http://www.w3.org/2000/svg" xmlns:xlink="http://www.w3.org/1999/xlink" x="0px" y="0px"
	 viewBox="0 0 100 100" style="enable-background:new 0 0 100 100;" xml:space="preserve">
<style type="text/css">
	.st0{fill:url(#SVGID_1_);}
	.st1{fill:url(#SVGID_2_);}
	.st2{fill:url(#SVGID_3_);}
	.st3{fill:url(#SVGID_4_);}
	.st4{fill:url(#SVGID_5_);}
	.st5{fill:url(#SVGID_6_);}
	.st6{fill:none;}
</style>
<g>
	<g>
		
			<linearGradient id="SVGID_1_" gradientUnits="userSpaceOnUse" x1="-1.0441" y1="102.1225" x2="-1.0044" y2="102.0801" gradientTransform="matrix(805.5508 0 0 -795.1891 887.7108 81236.9375)">
			<stop  offset="0" style="stop-color:#F9A03C"/>
			<stop  offset="1" style="stop-color:#F7974E"/>
		</linearGradient>
		<path class="st0" d="M77.8,62.9c0-0.2,0-0.5,0.1-0.7C77.9,62,61.1,46,61.1,46h-0.4C60.7,46,77.7,64,77.8,62.9L77.8,62.9z"/>
		
			<linearGradient id="SVGID_2_" gradientUnits="userSpaceOnUse" x1="-1.0072" y1="104.5961" x2="-0.9313" y2="104.522" gradientTransform="matrix(392.6758 0 0 -394.6426 415.7019 41314.5781)">
			<stop  offset="0" style="stop-color:#F9A03C"/>
			<stop  offset="1" style="stop-color:#F7974E"/>
		</linearGradient>
		<path class="st1" d="M42,57.4C42,57.4,42,57.5,42,57.4c-0.1,0.2-0.1,0.2-0.2,0.3c-0.5,1.1,7.5,9,8.1,8l0.1-0.1l0.1-0.1
			C50.7,64.7,42.3,56.9,42,57.4L42,57.4z"/>
		
			<linearGradient id="SVGID_3_" gradientUnits="userSpaceOnUse" x1="-2.2404" y1="105.9433" x2="-2.1728" y2="105.8659" gradientTransform="matrix(400.7761 0 0 -389.963 931.8647 41360.6914)">
			<stop  offset="0" style="stop-color:#F9A03C"/>
			<stop  offset="1" style="stop-color:#F7974E"/>
		</linearGradient>
		<path class="st2" d="M53.4,68.4c0,0-0.2,0.3-0.3,0.5l7.8,7.8h0.7C61.6,76.8,54.2,68.8,53.4,68.4z"/>
		
			<linearGradient id="SVGID_4_" gradientUnits="userSpaceOnUse" x1="1.0122" y1="100.9899" x2="1.0273" y2="100.9698" gradientTransform="matrix(2498.3396 0 0 -2363.3909 -2497.3396 238703.4688)">
			<stop  offset="0" style="stop-color:#F26D58"/>
			<stop  offset="1" style="stop-color:#F9A03C"/>
		</linearGradient>
		<path class="st3" d="M77.9,62.1c-0.4,8.1-7.1,14.7-15.3,14.7h-1.1l-8.2-8.1c0.7-1,1.3-1.9,1.9-3h7.5c2.4,0,4.3-1.9,4.3-4.3
			c0-2.4-1.9-4.3-4.3-4.3h-4.4c0.3-1.8,0.5-3.6,0.5-5.5s-0.2-3.8-0.5-5.6H61l17,16.7C77.9,62.5,77.9,62.3,77.9,62.1L77.9,62.1z
			 M29.2,26.4h-4.5v11.1h4.5c7.8,0,14.1,6.3,14.1,14.1c0,2.1-0.5,4.1-1.3,5.9l8.1,8c2.7-4,4.2-8.8,4.2-14
			C54.4,37.7,43.1,26.4,29.2,26.4z"/>
		
			<linearGradient id="SVGID_5_" gradientUnits="userSpaceOnUse" x1="0.4387" y1="100.9841" x2="0.461" y2="100.9695" gradientTransform="matrix(1569.598 0 0 -1707.1244 -639.0558 172420.5625)">
			<stop  offset="0" style="stop-color:#B84E51"/>
			<stop  offset="1" style="stop-color:#F68E48"/>
		</linearGradient>
		<path class="st4" d="M62.6,26.4H44.5c4.4,2.7,8.1,6.5,10.6,11.1h7.5c2.4,0,4.3,1.9,4.3,4.3c0,2.4-1.9,4.3-4.3,4.3h-1.7l17,16.7
			c0-0.5,0.1-0.9,0.1-1.4c0-3.7-1.3-7.2-3.6-9.8c2.2-2.7,3.6-6.1,3.6-9.8C77.9,33.3,71,26.4,62.6,26.4z"/>
		
			<linearGradient id="SVGID_6_" gradientUnits="userSpaceOnUse" x1="1.0237" y1="102.5494" x2="1.0248" y2="102.5231" gradientTransform="matrix(1726.1868 0 0 -904.572 -1725.1868 92825.4531)">
			<stop  offset="0" style="stop-color:#F9A03C"/>
			<stop  offset="1" style="stop-color:#F7974E"/>
		</linearGradient>
		<path class="st5" d="M61.5,76.8H44.6c3.4-2.1,6.3-4.9,8.6-8.1L61.5,76.8L61.5,76.8z M50.1,65.6l-8.1-8c-2.3,4.8-7.2,8.2-12.8,8.2
			h-4.5v11.1h4.5C37.9,76.8,45.6,72.4,50.1,65.6z"/>
	</g>
	<path class="st6" d="M0,0h100v100H0V0z"/>
</g>
</svg>
