<svg id="Layer_1" data-name="Layer 1" xmlns="http://www.w3.org/2000/svg" viewBox="0 0 110 110"><defs><style>.cls-1{fill:#4285f4;}</style></defs><title>docker-blue</title><path class="cls-1" d="M20.6,66.38A1.51,1.51,0,0,0,19,67.83v7.64A8.45,8.45,0,0,0,7.16,76.76a8.56,8.56,0,0,0-1.85,5.3,8.44,8.44,0,1,0,16.88.3V67.94a1.57,1.57,0,0,0-.45-1.11,1.69,1.69,0,0,0-1.14-.45m-2,17.72a5.35,5.35,0,0,1-2.81,2.84,5.29,5.29,0,0,1-4.13-9.73,5.27,5.27,0,0,1,6.94,2.84,5.09,5.09,0,0,1,0,4"/><path class="cls-1" d="M38.22,76.1a8.53,8.53,0,1,0,2.49,6.26v-.3a8.35,8.35,0,0,0-.64-3.23,8.1,8.1,0,0,0-1.85-2.73m-1.09,8A5.17,5.17,0,0,1,36,85.75a5.63,5.63,0,0,1-1.67,1.14,5.29,5.29,0,0,1-6.94-2.81,5.24,5.24,0,0,1,0-4.11,5.29,5.29,0,0,1,6.94-2.81A5.11,5.11,0,0,1,36,78.3,5.39,5.39,0,0,1,37.13,80a5.24,5.24,0,0,1,0,4.11"/><path class="cls-1" d="M73.12,75.17a1.6,1.6,0,0,0-.14-.61,2.33,2.33,0,0,0-.34-.5,1.77,1.77,0,0,0-.5-.34,1.6,1.6,0,0,0-.61-.14,1.63,1.63,0,0,0-.85.24l-9,5.86V68a1.58,1.58,0,0,0-3.15,0v21A1.57,1.57,0,0,0,59,90a1.52,1.52,0,0,0,2.22,0,1.45,1.45,0,0,0,.45-1.11V83.47l1.83-1.19,7,7.81a1.4,1.4,0,0,0,1.06.4,1.29,1.29,0,0,0,.61-.13,1.52,1.52,0,0,0,.5-.35,1.88,1.88,0,0,0,.35-.5,1.59,1.59,0,0,0,.13-.61,1.68,1.68,0,0,0-.42-1.09L66.2,80.53l6.31-4.11a1.38,1.38,0,0,0,.61-1.25"/><path class="cls-1" d="M47,78.3a5.35,5.35,0,0,1,1.7-1.14,5.63,5.63,0,0,1,2.07-.42,5.09,5.09,0,0,1,1.82.32,5.28,5.28,0,0,1,1.62,1,1.66,1.66,0,0,0,1,.34,1.4,1.4,0,0,0,1.14-.45,1.59,1.59,0,0,0,.45-1.14,1.5,1.5,0,0,0-.55-1.19,7.92,7.92,0,0,0-5.51-2,8.45,8.45,0,1,0,5.48,14.86,1.56,1.56,0,0,0,.5-1.16,1.51,1.51,0,0,0-1.45-1.57h-.11a1.73,1.73,0,0,0-1,.32,5.22,5.22,0,0,1-1.59,1,5.41,5.41,0,0,1-1.82.32,5.08,5.08,0,0,1-2.07-.42A5.9,5.9,0,0,1,47,85.75a5.32,5.32,0,0,1,0-7.48c0,.06,0,.06,0,0"/><path class="cls-1" d="M104.41,74.67a3,3,0,0,0-1.06-.64,6.74,6.74,0,0,0-1.4-.31,11.53,11.53,0,0,0-1.43-.08,8.09,8.09,0,0,0-2.84.5,8.75,8.75,0,0,0-2.46,1.38V75.2a1.58,1.58,0,0,0-3.16,0V89a1.58,1.58,0,0,0,3.16,0V82.09A5.11,5.11,0,0,1,95.64,80a5,5,0,0,1,1.14-1.67,5.76,5.76,0,0,1,1.67-1.14,5.63,5.63,0,0,1,2.07-.42,6,6,0,0,1,2.06.37,1.41,1.41,0,0,0,.67.16,1.23,1.23,0,0,0,.6-.13,1.55,1.55,0,0,0,.51-.35,1.64,1.64,0,0,0,.34-.5,1.6,1.6,0,0,0,.14-.61,1.39,1.39,0,0,0-.43-1.06"/><path class="cls-1" d="M89.78,78.83A8.58,8.58,0,0,0,82,73.64a8.45,8.45,0,0,0-8.46,8.42h0a8.46,8.46,0,0,0,14,6.42l0-.06a1.31,1.31,0,0,0,.35-.39,1.62,1.62,0,0,0-.4-2.23,1.56,1.56,0,0,0-1.94.19c-.05.05-.21.18-.21.21l0,0a5,5,0,0,1-1.51.88,4.75,4.75,0,0,1-1.83.29,5.36,5.36,0,0,1-3.18-1,5,5,0,0,1-1.17-1.17,4.83,4.83,0,0,1-.74-1.51H88.8a1.57,1.57,0,0,0,1.12-.45,1.41,1.41,0,0,0,.45-1.11,8.68,8.68,0,0,0-.59-3.29m-12.9,1.7A4.53,4.53,0,0,1,77.62,79a5,5,0,0,1,1.17-1.17,6.12,6.12,0,0,1,1.48-.77,5.49,5.49,0,0,1,3.34,0A5.41,5.41,0,0,1,86.26,79,5.67,5.67,0,0,1,87,80.53Z"/><path class="cls-1" d="M99,88.21a1.1,1.1,0,1,0,1.11,1.11A1.1,1.1,0,0,0,99,88.21h0m0,2A.86.86,0,0,1,99,88.45a.85.85,0,0,1,.9.82v0a.81.81,0,0,1-.79.85h0"/><path class="cls-1" d="M99.3,89.32h0a.25.25,0,0,0,.21-.26.26.26,0,0,0-.11-.24.87.87,0,0,0-.37-.08,2,2,0,0,0-.42,0v1.08h.24v-.42H99a.22.22,0,0,1,.24.16c0,.08,0,.18.08.26h.27a.44.44,0,0,1-.08-.26.28.28,0,0,0-.16-.27M99,89.24h-.13v-.31H99c.16,0,.24.08.24.16s-.11.18-.24.15"/><path class="cls-1" d="M83.08,33.19A7.52,7.52,0,0,0,78.42,32a15,15,0,0,0-2.41.21,9.14,9.14,0,0,0-4.08-6.12l-.82-.48-.53.77a11.2,11.2,0,0,0-1.46,3.39,8.08,8.08,0,0,0,.95,6.34,11.14,11.14,0,0,1-4.16,1H28.28a1.78,1.78,0,0,0-1.77,1.78,26.87,26.87,0,0,0,1.64,9.67A14.51,14.51,0,0,0,33.88,56c2.8,1.72,7.39,2.7,12.56,2.7a37.87,37.87,0,0,0,7-.64,28.63,28.63,0,0,0,9.12-3.31,24.73,24.73,0,0,0,6.2-5.09,33.56,33.56,0,0,0,6.07-10.46h.53a8.71,8.71,0,0,0,6.38-2.41,7,7,0,0,0,1.7-2.5l.24-.68Z"/><path class="cls-1" d="M31.78,36h5a.45.45,0,0,0,.45-.45h0V31a.45.45,0,0,0-.45-.45h-5a.45.45,0,0,0-.45.45h0v4.51a.47.47,0,0,0,.45.45h0"/><path class="cls-1" d="M38.72,36h5a.45.45,0,0,0,.45-.45h0V31a.45.45,0,0,0-.45-.45h-5a.45.45,0,0,0-.45.45v4.51a.48.48,0,0,0,.45.45"/><path class="cls-1" d="M45.8,36h5a.46.46,0,0,0,.46-.45h0V31a.45.45,0,0,0-.46-.45h-5a.45.45,0,0,0-.45.45h0v4.51a.43.43,0,0,0,.45.45h0"/><path class="cls-1" d="M52.77,36h5a.45.45,0,0,0,.45-.45V31a.44.44,0,0,0-.45-.45h-5a.45.45,0,0,0-.45.45h0v4.51a.45.45,0,0,0,.45.45h0"/><path class="cls-1" d="M38.72,29.56h5a.46.46,0,0,0,.45-.45V24.6a.45.45,0,0,0-.45-.45h-5a.45.45,0,0,0-.45.45v4.51a.49.49,0,0,0,.45.45"/><path class="cls-1" d="M45.8,29.56h5a.47.47,0,0,0,.46-.45V24.6a.45.45,0,0,0-.46-.45h-5a.45.45,0,0,0-.45.45h0v4.51a.44.44,0,0,0,.45.45"/><path class="cls-1" d="M52.77,29.56h5a.46.46,0,0,0,.45-.45V24.6a.46.46,0,0,0-.45-.45h-5a.45.45,0,0,0-.45.45h0v4.51a.46.46,0,0,0,.45.45"/><path class="cls-1" d="M52.77,23.09h5a.44.44,0,0,0,.45-.45v-4.5a.46.46,0,0,0-.45-.45h-5a.44.44,0,0,0-.45.45h0v4.5a.46.46,0,0,0,.45.45"/><path class="cls-1" d="M59.79,36h5a.45.45,0,0,0,.45-.45V31a.45.45,0,0,0-.45-.45h-5a.45.45,0,0,0-.45.45h0v4.51a.47.47,0,0,0,.45.45"/></svg>