<svg xmlns="http://www.w3.org/2000/svg" width="56" height="26" viewBox="0 0 56 26">
    <g fill="none" fill-rule="evenodd">
        <path d="M-22-37H78V63H-22z"/>
        <path fill="#4285F4" fill-rule="nonzero" d="M.3 25.5h15.3v-4.2H5v-6.4h9.7v-4.2H5v-6h10.6V.5H.3v25zm35.8-6.8c0-5-.3-6.1-7-7.7-4.3-1-4.4-1.1-4.4-4 0-2.2.6-2.8 3.7-2.8 2.2 0 4.6.3 6.7.7l.5-4C33.1.3 30.5.1 28.3.1c-6.3 0-8.4 2.2-8.4 6.8 0 5.3.8 6.4 6.9 7.8 4.5 1 4.6 1.2 4.6 4 0 2.4-.6 3.1-4 3.1-2.5 0-4.7-.4-7-1.2l-.8 3.7c1.6.8 4.9 1.5 7.8 1.5 7.3.1 8.7-2.4 8.7-7.1zm8.7-9.3c0-3.8 1.8-4.6 6.3-4.6.8 0 2.4.1 3.5.3l.3-3.8C53.8 1 52 .9 50.6.9 43.8.9 40.3 3 40.3 9.6v9.1c0 4.3 1.3 7.2 7.7 7.2 5.9 0 7.7-2.9 7.7-6.8v-1.8c0-4.3-1.8-6.2-6.4-6.2-1.6 0-3.1.2-4.5.7V9.4zm3.7 5.6c1.6 0 2.5.6 2.5 2.4v1.8c0 1.9-.8 2.7-3.1 2.7-2.4 0-3.1-.7-3.1-2.7v-3.4c1-.5 2.3-.8 3.7-.8z"/>
    </g>
</svg>
