<svg xmlns="http://www.w3.org/2000/svg" width="62" height="30" viewBox="0 0 62 30">
    <g fill="none" fill-rule="evenodd">
        <path d="M-24-40H86V70H-24z"/>
        <path fill="#4285F4" fill-rule="nonzero" d="M.53 28.75h16.83v-4.62H5.7v-7.04h10.67v-4.62H5.7v-6.6h11.66V1.25H.53v27.5zm39.38-7.48c0-5.5-.33-6.71-7.7-8.47-4.73-1.1-4.84-1.21-4.84-4.4 0-2.42.66-3.08 4.07-3.08 2.42 0 5.06.33 7.37.77l.55-4.4c-2.75-.66-5.61-.88-8.03-.88-6.93 0-9.24 2.42-9.24 7.48 0 5.83.88 7.04 7.59 8.58 4.95 1.1 5.06 1.32 5.06 4.4 0 2.64-.66 3.41-4.4 3.41-2.75 0-5.17-.44-7.7-1.32l-.88 4.07c1.76.88 5.39 1.65 8.58 1.65 8.03.11 9.57-2.64 9.57-7.81zm9.57-10.23c0-4.18 1.98-5.06 6.93-5.06.88 0 2.64.11 3.85.33l.33-4.18c-1.21-.33-3.19-.44-4.73-.44-7.48 0-11.33 2.31-11.33 9.57v10.01c0 4.73 1.43 7.92 8.47 7.92 6.49 0 8.47-3.19 8.47-7.48v-1.98c0-4.73-1.98-6.82-7.04-6.82-1.76 0-3.41.22-4.95.77v-2.64zm4.07 6.16c1.76 0 2.75.66 2.75 2.64v1.98c0 2.09-.88 2.97-3.41 2.97-2.64 0-3.41-.77-3.41-2.97v-3.74c1.1-.55 2.53-.88 4.07-.88z"/>
    </g>
</svg>
