<?xml version="1.0" encoding="utf-8"?>
<!-- Generator: Adobe Illustrator 22.0.1, SVG Export Plug-In . SVG Version: 6.00 Build 0)  -->
<svg version="1.1" id="Layer_1" xmlns="http://www.w3.org/2000/svg" xmlns:xlink="http://www.w3.org/1999/xlink" x="0px" y="0px"
	 viewBox="0 0 100 100" style="enable-background:new 0 0 100 100;" xml:space="preserve">
<style type="text/css">
	.st0{fill:#F26522;}
	.st1{fill:#FFFFFF;}
</style>
<g>
	<path class="st0" d="M0,0h100v100H0V0z"/>
	<path class="st1" d="M22.3,62.5h15.3v-4.2H27v-6.4h9.7v-4.2H27v-6h10.6v-4.2H22.3V62.5L22.3,62.5z M58.1,55.7c0-5-0.3-6.1-7-7.7
		c-4.3-1-4.4-1.1-4.4-4c0-2.2,0.6-2.8,3.7-2.8c2.2,0,4.6,0.3,6.7,0.7l0.5-4c-2.5-0.6-5.1-0.8-7.3-0.8c-6.3,0-8.4,2.2-8.4,6.8
		c0,5.3,0.8,6.4,6.9,7.8c4.5,1,4.6,1.2,4.6,4c0,2.4-0.6,3.1-4,3.1c-2.5,0-4.7-0.4-7-1.2l-0.8,3.7c1.6,0.8,4.9,1.5,7.8,1.5
		C56.7,62.9,58.1,60.4,58.1,55.7L58.1,55.7z M66.8,46.4c0-3.8,1.8-4.6,6.3-4.6c0.8,0,2.4,0.1,3.5,0.3l0.3-3.8
		c-1.1-0.3-2.9-0.4-4.3-0.4c-6.8,0-10.3,2.1-10.3,8.7v9.1c0,4.3,1.3,7.2,7.7,7.2c5.9,0,7.7-2.9,7.7-6.8v-1.8c0-4.3-1.8-6.2-6.4-6.2
		c-1.6,0-3.1,0.2-4.5,0.7L66.8,46.4L66.8,46.4z M70.5,52c1.6,0,2.5,0.6,2.5,2.4v1.8c0,1.9-0.8,2.7-3.1,2.7c-2.4,0-3.1-0.7-3.1-2.7
		v-3.4C67.8,52.3,69.1,52,70.5,52L70.5,52z"/>
</g>
</svg>
