<svg xmlns="http://www.w3.org/2000/svg" width="86" height="28" viewBox="0 0 86 28">
    <g fill="none" fill-rule="evenodd">
        <g fill="#4285F4" fill-rule="nonzero">
            <path d="M.1 14.2c0-1.5.2-2.8.7-3.9.5-1.1 1.2-2 2.1-2.6.9-.6 2-.9 3.2-.9 1.5 0 2.7.5 3.6 1.5L9.9 7H14v14c0 1.3-.3 2.4-.9 3.4-.6.9-1.5 1.7-2.6 2.2-1.1.5-2.4.8-3.9.8-1.1 0-2.1-.2-3.1-.6-1-.4-1.8-.9-2.3-1.6l1.9-2.7c.8 1 2 1.5 3.3 1.5 2 0 3-1 3-3.1v-.5c-.9 1-2 1.4-3.3 1.4-1.8 0-3.2-.7-4.3-2C.7 18.4.2 16.6.2 14.3v-.1H.1zm4.6.2c0 1.2.2 2.1.7 2.8.4.7 1.1 1 1.9 1 1 0 1.7-.3 2.1-1v-6.1c-.4-.7-1.1-1-2.1-1-.8 0-1.4.4-1.9 1.1-.5.8-.7 1.9-.7 3.2zM23.6 21.8c-2.2 0-4.1-.7-5.4-2-1.4-1.3-2.1-3.1-2.1-5.2v-.4c0-1.5.3-2.8.8-4 .6-1.1 1.4-2 2.4-2.7 1.1-.6 2.3-.9 3.8-.9 2.1 0 3.7.6 4.9 1.9 1.2 1.3 1.8 3 1.8 5.3v1.8h-9c.2.8.5 1.5 1.1 1.9.6.4 1.3.7 2.1.7 1.4 0 2.6-.5 3.4-1.5l2.1 2.5c-.6.8-1.4 1.4-2.4 1.9-1.2.5-2.3.7-3.5.7zm-.5-11.6c-1.3 0-2.1.9-2.4 2.6h4.6v-.4c0-.7-.2-1.3-.6-1.7-.3-.3-.9-.5-1.6-.5zM36.9 3.3V7h2.4v3.2h-2.4v6.7c0 .5.1.9.3 1.1.2.2.6.3 1.2.3.4 0 .8 0 1.1-.1v3.3c-.8.3-1.7.4-2.6.4-1.6 0-2.7-.4-3.5-1.1-.7-.7-1.1-1.9-1.1-3.4v-7.2h-1.9V7h1.9V3.4h4.6v-.1zM45.4 7l.1 1.7c1-1.3 2.4-2 4.2-2 1.8 0 3.1.7 3.7 2.2 1-1.5 2.4-2.2 4.3-2.2 3 0 4.5 1.8 4.6 5.4v9.5h-4.6v-9.2c0-.7-.1-1.3-.4-1.6-.3-.3-.7-.5-1.4-.5-.9 0-1.6.4-2 1.2v10.2h-4.6v-9.2c0-.8-.1-1.3-.4-1.7-.2-.3-.7-.5-1.4-.5-.9 0-1.5.4-2 1.2v10.2H41V7h4.4zM64.3 14.2c0-2.3.5-4.1 1.5-5.5 1-1.3 2.4-2 4.2-2 1.3 0 2.4.5 3.3 1.5V.8h4.6v20.7h-4.1l-.2-1.5c-.9 1.2-2.1 1.8-3.6 1.8-1.7 0-3.1-.7-4.1-2-1.1-1.3-1.6-3.2-1.6-5.6zm4.6.2c0 2.6.8 3.9 2.3 3.9 1 0 1.7-.4 2.2-1.3v-5.6c-.4-.9-1.1-1.3-2.1-1.3-1.4 0-2.2 1.1-2.3 3.4l-.1.9zM85.3 21.6h-4.6V.8h4.6z"/>
        </g>
        <path d="M-7-38H93V62H-7z"/>
    </g>
</svg>
