<?xml version="1.0" encoding="utf-8"?>
<!-- Generator: Adobe Illustrator 22.0.1, SVG Export Plug-In . SVG Version: 6.00 Build 0)  -->
<svg version="1.1" id="Layer_1" xmlns="http://www.w3.org/2000/svg" xmlns:xlink="http://www.w3.org/1999/xlink" x="0px" y="0px"
	 viewBox="0 0 100 100" style="enable-background:new 0 0 100 100;" xml:space="preserve">
<style type="text/css">
	.st0{display:none;}
	.st1{display:inline;fill:#CF4547;}
	.st2{display:inline;}
	.st3{fill:#FFFFFF;}
	.st4{display:inline;fill:#F26522;}
	.st5{display:inline;fill:#FFFFFF;}
	.st6{fill:#6BA0AB;}
	.st7{display:inline;fill:none;}
	.st8{fill:#1A1918;}
	.st9{fill:#21609B;}
	.st10{display:inline;stroke:#000000;stroke-width:0.5;stroke-linecap:round;stroke-linejoin:round;stroke-miterlimit:10;}
	.st11{font-family:'Roboto-BoldItalic';}
	.st12{font-size:28px;}
	.st13{letter-spacing:1;}
	.st14{display:inline;fill:#CF649A;}
	.st15{fill:url(#SVGID_1_);}
	.st16{fill:url(#SVGID_2_);}
	.st17{fill:url(#SVGID_3_);}
	.st18{fill:url(#SVGID_4_);}
	.st19{fill:url(#SVGID_5_);}
	.st20{fill:url(#SVGID_6_);}
	.st21{display:none;fill:#000333;}
	.st22{fill:#000333;}
	.st23{font-family:'Roboto-Bold';}
	.st24{font-size:24px;}
	.st25{fill:none;}
</style>
<g class="st0">
	<path class="st1" d="M0,0h100v100H0V0z"/>
	<g class="st2">
		<path class="st3" d="M23.5,45.3c0.6-1.5,1.4-2.9,2.2-4.3c0.8-1.4,1.7-2.7,2.6-3.7c0.9-1.1,1.8-2,2.7-2.6c0.9-0.6,1.7-1,2.5-1
			c0.5,0,1,0.1,1.4,0.4c0.4,0.3,0.8,0.7,1.2,1.4c0.4,0.7,0.8,1.3,1.1,1.7c0.3,0.4,0.7,0.6,1.1,0.6c0.4,0,0.8-0.2,1.1-0.6
			c0.3-0.4,0.5-0.9,0.5-1.5c0-0.3,0-0.5-0.1-0.9c-0.1-0.3-0.2-0.6-0.4-0.9c-0.9-1.3-1.8-2.2-2.8-2.8c-1-0.6-2-0.9-3.1-0.9
			c-0.9,0-1.9,0.2-2.8,0.6c-0.9,0.4-1.9,1-2.8,1.7c-0.9,0.7-1.8,1.6-2.7,2.5c-0.9,1-1.7,2-2.5,3.2c-0.8,1.2-1.5,2.4-2.1,3.7
			c-0.6,1.3-1.2,2.6-1.7,4c-0.5,1.4-0.9,2.7-1.2,4.1c-0.3,1.4-0.5,2.7-0.6,4c0,0.1,0,0.2,0,0.3v0.3c0,0.7,0.1,1.5,0.3,2.2
			c0.2,0.7,0.5,1.4,0.9,2c0.4,0.6,0.9,1.1,1.5,1.4c0.6,0.4,1.3,0.5,2.1,0.5c0.7,0,1.5-0.2,2.2-0.5c0.8-0.3,1.5-0.8,2.3-1.3
			c0.8-0.5,1.5-1.2,2.2-1.8c0.6-0.5,1.1-1.1,1.6-1.6c-0.2,0.5-0.3,1-0.5,1.6c-0.3,0.9-0.5,1.7-0.7,2.4c-0.2,0.8-0.4,1.5-0.6,2
			c-0.2,0.6-0.2,1-0.3,1.3c0,0.1,0,0.2,0,0.3v0.3c0,0.7,0.1,1.2,0.3,1.4c0.2,0.3,0.5,0.4,0.9,0.4c0.2,0,0.5-0.1,0.7-0.3
			c0.2-0.2,0.4-0.4,0.6-0.6c0.2-0.2,0.3-0.5,0.5-0.8c0.1-0.3,0.2-0.5,0.3-0.7c0-0.1,0.1-0.3,0.2-0.7c0.1-0.3,0.2-0.8,0.4-1.4
			c0.1-0.5,0.3-1.1,0.5-1.8c0.2-0.7,0.4-1.4,0.6-2.1c0.3-0.8,0.4-1.5,0.6-2.1c0.2-0.6,0.4-1.2,0.6-1.8c0.2-0.5,0.3-1,0.4-1.4
			c0.2-0.5,0.2-0.6,0.2-0.6l0,0l0,0c0.2-0.6,0.4-1.1,0.6-1.7c0.2-0.5,0.4-1.1,0.6-1.7c0.2-0.5,0.3-1.1,0.4-1.7
			c0.1-0.6,0.2-1.2,0.2-1.9c0-0.3,0-0.5-0.1-0.7c-0.1-0.2-0.2-0.4-0.3-0.5c-0.1-0.1-0.3-0.2-0.5-0.3c-0.2-0.1-0.4-0.1-0.5-0.1
			c-0.4,0-0.7,0.1-1.1,0.4c-0.3,0.2-0.6,0.6-0.8,1.2l0,0l-1.6,4.8c-0.2,0.4-0.5,0.9-0.9,1.4c-0.4,0.5-0.8,1.1-1.3,1.7
			c-0.5,0.6-1.1,1.2-1.6,1.8c-0.6,0.6-1.2,1.1-1.7,1.6c-0.6,0.5-1.1,0.8-1.7,1.1c-0.5,0.3-1,0.4-1.4,0.4c-0.4,0-0.6-0.1-0.9-0.3
			c-0.2-0.2-0.4-0.5-0.6-0.8c-0.1-0.3-0.2-0.7-0.3-1.1c-0.1-0.4-0.1-0.8-0.1-1.2c0-1.1,0.2-2.4,0.6-3.8
			C22.4,48.2,22.9,46.7,23.5,45.3z"/>
		<path class="st3" d="M83.1,50.1c-0.2-0.3-0.4-0.4-0.7-0.4c-0.1,0-0.3,0-0.5,0.1c-0.2,0.1-0.3,0.2-0.5,0.3l0,0l0,0
			c-1.5,1.4-2.8,2.5-3.9,3.4c-1,0.9-1.9,1.6-2.6,2.2c-0.7,0.5-1.2,0.9-1.6,1.1c-0.4,0.3-0.7,0.3-0.8,0.3c-0.2,0-0.4,0-0.4-0.1
			c-0.1-0.1-0.1-0.2-0.1-0.3c0,0,0.1-0.2,0.4-0.6c0.3-0.4,0.7-0.8,1.1-1.3c0.4-0.5,0.9-1,1.4-1.7c0.5-0.6,1-1.2,1.4-1.9
			c0.4-0.6,0.8-1.3,1.1-1.9c0.3-0.6,0.4-1.3,0.4-1.8c0-0.4-0.1-0.8-0.3-1.2c-0.2-0.3-0.4-0.6-0.8-0.8c-0.3-0.2-0.7-0.4-1-0.5
			c-0.4-0.1-0.8-0.2-1.2-0.2c-0.6,0-1.1,0.1-1.7,0.4c-0.6,0.2-1.1,0.5-1.6,0.9c-0.5,0.4-1,0.8-1.6,1.2c-0.4,0.3-0.7,0.7-1,1
			c0-0.1,0.1-0.3,0.1-0.5c0-0.2,0.1-0.4,0.1-0.6c0-0.2,0-0.3,0-0.4c0-0.4-0.1-0.8-0.3-1c-0.2-0.2-0.6-0.4-1.1-0.4
			c-0.3,0-0.7,0.2-0.9,0.5c-0.3,0.3-0.5,0.7-0.7,1.2c-0.2,0.4-0.4,0.9-0.6,1.3c-0.2,0.4-0.3,0.8-0.4,1l0,0c-0.1,0.5-0.3,1.1-0.5,1.6
			c-0.1,0-0.2,0.1-0.3,0.2c-0.3,0.3-0.7,0.7-1.1,1.1c-0.4,0.4-0.8,0.8-1.3,1.2c-0.5,0.4-0.9,0.8-1.4,1.1c-0.5,0.4-0.9,0.7-1.3,1
			c-0.4,0.3-0.8,0.5-1.2,0.7c-0.3,0.2-0.6,0.2-0.9,0.2c-0.2,0-0.3-0.1-0.3-0.1c-0.1-0.1-0.1-0.2-0.1-0.4c0-0.3,0.1-0.7,0.2-1.1
			c0.1-0.4,0.2-0.8,0.4-1.1l0,0c0.3-0.8,0.7-1.7,1-2.6c0.4-1.1,0.9-2.1,1.3-3.2c0.4-1.1,0.9-2.2,1.4-3.4c0.5-1.1,0.9-2.3,1.4-3.4
			c0.5-1.2,0.9-2.1,1.3-3c0.4-0.9,0.7-1.7,1-2.3c0.1-0.3,0.3-0.6,0.4-0.9c0.1-0.3,0.2-0.6,0.2-0.8c0-0.6-0.2-1-0.5-1.2
			c-0.3-0.2-0.7-0.4-1.1-0.4c-0.4,0-0.8,0.1-1.1,0.3c-0.4,0.2-0.7,0.6-0.9,1.2l-5.2,13.2c-0.3,0.8-0.7,1.8-1.1,2.9
			c-0.4,1-0.8,2-1.2,3.2c-0.2,0.6-0.4,1.2-0.6,1.8c-0.1,0.1-0.3,0.2-0.4,0.3c-0.6,0.4-1.1,0.8-1.6,1c-0.5,0.2-0.9,0.4-1.3,0.4
			c-0.4,0-0.6-0.2-0.6-0.6c0-0.5,0.1-1.1,0.2-1.7c0.2-0.6,0.4-1.3,0.6-1.9c0.2-0.6,0.5-1.3,0.8-1.9c0.3-0.7,0.5-1.3,0.8-1.8
			c0.2-0.5,0.4-1,0.6-1.5c0.2-0.4,0.2-0.8,0.2-1.1c0-0.5-0.1-0.9-0.4-1.2c-0.3-0.3-0.6-0.5-1.1-0.5c-0.4,0-0.8,0.2-1,0.5
			c-0.3,0.3-0.5,0.7-0.7,1.2c-0.2,0.5-0.4,1-0.5,1.5c-0.2,0.5-0.4,1-0.6,1.5l0,0c-0.3,0.7-0.7,1.4-1.2,2.3c-0.5,0.8-1,1.6-1.6,2.3
			c-0.6,0.7-1.2,1.3-1.9,1.8c-0.7,0.5-1.3,0.7-2.1,0.7c-0.2,0-0.4-0.1-0.5-0.2c-0.1-0.2-0.2-0.4-0.2-0.6c0-0.6,0.1-1.2,0.3-1.8
			c0.2-0.6,0.4-1.2,0.6-1.8c0.2-0.6,0.5-1.2,0.8-1.7c0.3-0.5,0.5-1,0.8-1.6c0.3-0.5,0.5-0.9,0.7-1.3c0.2-0.4,0.3-0.7,0.4-0.9
			c0-0.1,0.1-0.3,0.1-0.4c0-0.2-0.1-0.4-0.2-0.6c-0.1-0.2-0.2-0.3-0.4-0.4c-0.2-0.1-0.3-0.2-0.5-0.2c-0.2,0-0.4-0.1-0.5-0.1
			c-0.4,0-0.8,0.1-1.1,0.4c-0.3,0.2-0.6,0.6-0.9,1.2c-0.9,2-1.7,3.7-2.2,5c-0.5,1.4-0.9,2.5-1.2,3.4c-0.2,0.9-0.4,1.5-0.4,1.9l0,0.1
			c-0.1,0.5-0.1,0.5-0.1,0.5c0,0.6,0.1,1.1,0.3,1.5c0.2,0.4,0.4,0.7,0.7,1c0.3,0.2,0.6,0.4,1,0.5c0.4,0.1,0.7,0.1,1.1,0.1
			c0.9,0,1.7-0.1,2.4-0.4c0.7-0.3,1.4-0.7,2-1.1c0.6-0.5,1.1-1,1.6-1.5c0.3-0.3,0.5-0.7,0.8-1c-0.1,0.6-0.1,1.1-0.1,1.5
			c0,0.9,0.2,1.6,0.6,2c0.4,0.4,0.9,0.6,1.4,0.6c0.6,0,1.2-0.2,1.9-0.5c0.7-0.3,1.4-0.7,2.1-1.2c0.1-0.1,0.3-0.2,0.4-0.3
			c0,0.1,0,0.1,0,0.2c0.1,0.4,0.2,0.7,0.4,1c0.2,0.3,0.5,0.5,0.8,0.7c0.3,0.2,0.7,0.2,1.2,0.2c0.7,0,1.4-0.2,2.2-0.5
			c0.7-0.3,1.5-0.8,2.2-1.3c0.6-0.5,1.3-1,1.9-1.6c0,0.1-0.1,0.2-0.1,0.2c-0.6,1.3-1.2,2.7-1.9,4.1c-0.7,1.4-1.3,2.8-1.9,4.1l0,0
			c-0.1,0.2-0.2,0.5-0.3,0.8c-0.1,0.3-0.2,0.5-0.3,0.8c-0.1,0.3-0.2,0.6-0.3,0.9c-0.1,0.3-0.1,0.6-0.1,0.9c0,0.6,0.2,1,0.5,1.2
			c0.3,0.2,0.7,0.3,1.1,0.3c0.3,0,0.7-0.1,0.9-0.2c0.3-0.1,0.5-0.4,0.7-0.6c0.2-0.2,0.4-0.5,0.6-0.9c0.2-0.3,0.3-0.7,0.4-1l0,0
			c0-0.1,0.1-0.4,0.2-0.7c0.1-0.3,0.3-0.7,0.4-1.2c0.2-0.5,0.4-1,0.5-1.4c0.2-0.4,0.3-0.8,0.4-1.2l0.1-0.4c0.2-0.4,0.3-0.8,0.4-1.1
			c0.1-0.4,0.2-0.6,0.3-0.7c0-0.1,0.1-0.2,0.2-0.5c0.1-0.2,0.2-0.4,0.2-0.6l0.1-0.3c0.1-0.3,0.3-0.6,0.5-1c0.2-0.4,0.3-0.7,0.5-1.1
			c0.2-0.4,0.3-0.7,0.4-0.9c0.1-0.3,0.2-0.5,0.3-0.6c0.2-0.5,0.5-1,0.8-1.6c0.3-0.5,0.7-1.1,1.1-1.7c0.4-0.5,0.8-1.1,1.3-1.6
			c0.4-0.5,0.9-1,1.4-1.4c0.5-0.4,0.9-0.7,1.4-0.9c0.5-0.2,0.9-0.3,1.4-0.3c0.2,0,0.4,0,0.5,0.1c0.1,0.1,0.1,0.2,0.1,0.3
			c0,0.2-0.1,0.6-0.4,1c-0.3,0.4-0.6,0.9-1,1.4c-0.5,0.6-0.9,1.1-1.4,1.7c-0.5,0.6-1,1.2-1.4,1.7c-0.4,0.6-0.8,1.1-1.1,1.7
			c-0.3,0.5-0.5,1-0.6,1.5c0,0.1,0,0.1,0,0.2v0.2c0,0.7,0.3,1.3,0.8,1.7c0.5,0.4,1.2,0.6,2.1,0.6c0.9,0,1.8-0.2,2.7-0.5
			c0.8-0.4,1.7-0.9,2.5-1.5c0.9-0.6,1.8-1.4,2.7-2.3c1-0.9,2.1-1.9,3.3-3c0.3-0.3,0.6-0.6,0.7-1c0.2-0.4,0.2-0.8,0.2-1.1
			C83.3,50.6,83.2,50.3,83.1,50.1z"/>
	</g>
</g>
<g class="st0">
	<path class="st4" d="M0,0h100v100H0V0z"/>
	<path class="st5" d="M41.2,62.5h15.3v-4.2H45.9v-6.4h9.7v-4.2h-9.7v-6h10.6v-4.2H41.2L41.2,62.5L41.2,62.5z M77,55.7
		c0-5-0.3-6.1-7-7.7c-4.3-1-4.4-1.1-4.4-4c0-2.2,0.6-2.8,3.7-2.8c2.2,0,4.6,0.3,6.7,0.7l0.5-4c-2.5-0.6-5.1-0.8-7.3-0.8
		c-6.3,0-8.4,2.2-8.4,6.8c0,5.3,0.8,6.4,6.9,7.8c4.5,1,4.6,1.2,4.6,4c0,2.4-0.6,3.1-4,3.1c-2.5,0-4.7-0.4-7-1.2l-0.8,3.7
		c1.6,0.8,4.9,1.5,7.8,1.5C75.6,62.9,77,60.4,77,55.7L77,55.7z M85.7,46.4c0-3.8,1.8-4.6,6.3-4.6c0.8,0,2.4,0.1,3.5,0.3l0.3-3.8
		c-1.1-0.3-2.9-0.4-4.3-0.4c-6.8,0-10.3,2.1-10.3,8.7v9.1c0,4.3,1.3,7.2,7.7,7.2c5.9,0,7.7-2.9,7.7-6.8v-1.8c0-4.3-1.8-6.2-6.4-6.2
		c-1.6,0-3.1,0.2-4.5,0.7L85.7,46.4L85.7,46.4z M89.4,52c1.6,0,2.5,0.6,2.5,2.4v1.8c0,1.9-0.8,2.7-3.1,2.7c-2.4,0-3.1-0.7-3.1-2.7
		v-3.4C86.7,52.3,88,52,89.4,52L89.4,52z"/>
</g>
<g class="st0">
	<g class="st2">
		<path class="st6" d="M32.9,51.3L32.9,51.3l-0.6,2.3L32.9,51.3z M36.1,56.2l-0.7,0L36.1,56.2z M36,59.6L36,59.6l-4.2,0L36,59.6z
			 M36.9,56.3l-0.7,0L36.9,56.3z M36.3,59.3l0.7-2.8L36.3,59.3L36.3,59.3L36.3,59.3z M51.9,46.4l-1.4,6.4L51.9,46.4z M48.4,46.4
			l-1,4.8L48.4,46.4L48.4,46.4z"/>
		<path class="st6" d="M51.6,46.1h-2.9c-0.2,0-0.3,0.1-0.4,0.3l-1,4.8l-1,4.8c0,0.2-0.2,0.3-0.4,0.3h-2.1c-2.1,0-1.8-1.4-1.4-3.4
			l0-0.1l0-0.2c0,0,0,0,0,0l0.1-0.5l0.1-0.5c0-0.2,0.1-0.4,0.1-0.5l0.5-2.3l0.5-2.3c0-0.2-0.1-0.3-0.2-0.3h-3
			c-0.2,0-0.3,0.1-0.4,0.3l-0.6,3.1l-0.6,3.1c0,0,0,0,0,0l-0.1,0.3c-0.7,3.4-0.5,6.6,3.5,6.7c0.1,0,0.1,0,0.1,0h6.3
			c0.2,0,0.3-0.1,0.4-0.3l1.4-6.4l1.4-6.4C51.9,46.3,51.8,46.1,51.6,46.1L51.6,46.1z M63.3,56.4c0.2,0,0.3,0.1,0.2,0.3l-0.3,1.4
			 M63,59.4l0.3-1.4L63,59.4L63,59.4z M62.6,59.7L62.6,59.7c-0.9,0-3.4,0-5.4,0C59.6,59.8,62.6,59.7,62.6,59.7z M55.5,54.6
			c0-0.2,0.2-0.4,0.3-0.4l-0.4,0C55.3,55.8,55.5,54.6,55.5,54.6z"/>
		<path class="st6" d="M57.5,59.8C57.5,59.8,57.5,59.8,57.5,59.8C57.5,59.8,57.5,59.8,57.5,59.8z M63.3,56.4c0.2,0,0.3,0.1,0.2,0.3
			l-0.3,1.4l0,0.2 M58.9,59.8L58.9,59.8L58.9,59.8z M58.2,59.8L58.2,59.8L58.2,59.8z M58,59.8C57.9,59.8,57.9,59.8,58,59.8
			C57.9,59.8,57.9,59.8,58,59.8z M57.7,59.8L57.7,59.8L57.7,59.8z M58.1,59.8l-0.2,0L58.1,59.8z M62.6,59.7c-0.6,0-2.2,0-3.7,0
			C60.4,59.8,62,59.7,62.6,59.7z M63,59.4l0.2-1.2L63,59.4L63,59.4L63,59.4z M57.9,59.8h-0.2H57.9z M57.4,59.8h-0.2H57.4z
			 M57.7,59.8h-0.2H57.7z M14.8,54.6l0.5-2l-0.5,2.3l-0.5,2.3l0.4-2.1C14.7,55,14.8,54.8,14.8,54.6L14.8,54.6z M20.3,46.1h-3.2
			c-0.2,0-0.3,0.1-0.4,0.3l-0.3,1.3l-0.3,1.3c0,0.2,0.1,0.3,0.2,0.3h3.2c0.2,0,0.3-0.1,0.4-0.3l0.3-1.3l0.3-1.3v0
			C20.5,46.2,20.4,46.1,20.3,46.1L20.3,46.1z M19.6,50.6L19.6,50.6L18.6,55L19.6,50.6L19.6,50.6z M10.2,65c0,0,1.6,0,2.7,0
			C12.1,65.1,10.8,65,10.2,65L10.2,65L10.2,65z M15.7,50.6l-0.5,2L15.7,50.6z"/>
		<path class="st6" d="M19.3,50.3h-3.2c-0.2,0-0.3,0.1-0.4,0.3l-0.5,2l-0.5,2c0,0.2-0.1,0.4-0.1,0.6l-0.4,2.1l-0.4,2.1
			c0,0.2-0.1,0.4-0.2,0.6c0,0-0.6,1.8-1.6,1.8c0,0-0.1,0-0.1,0c-0.5,0-0.9,0-0.9,0h0c-0.2,0-0.3,0.1-0.4,0.3l-0.3,1.4L10,64.8
			c0,0.2,0.1,0.3,0.2,0.3c0.6,0,1.9,0,2.7,0c2.5,0,3.9-1.4,4.7-5.5l1-4.7l0.9-4.4C19.6,50.4,19.5,50.3,19.3,50.3L19.3,50.3z
			 M65.4,59.6c-0.2,0-0.3-0.1-0.2-0.3l2.4-11.4 M68.8,59.3l1-4.9L68.8,59.3z"/>
		<path class="st6" d="M65.2,59.5c0-0.1,0-0.3,0-0.4l1.2-5.4l-1.2,5.7c0,0.2,0.1,0.3,0.2,0.3h0.3C65.5,59.6,65.2,59.5,65.2,59.5z
			 M68.6,59.5c-0.1,0-0.3,0.1-0.5,0.1h0.3c0.2,0,0.3-0.1,0.4-0.3l0.1-0.3C68.8,59.2,68.7,59.5,68.6,59.5L68.6,59.5z M69.3,56.9
			l0.4-2.2c0,0,0,0,0,0L69.3,56.9L69.3,56.9z M78.9,48.7l0.1,0.6c0,0.2-0.1,0.3-0.2,0.3 M68.8,59l0.4-2.1L68.8,59z M78.8,48.1
			l0.1,0.6L78.8,48.1z M69.7,54.7c0-0.2,0.1-0.4,0.1-0.6l0.5-2.2l-0.5,2.5L69.7,54.7z M67.6,47.7c0,0.2-0.1,0.3-0.1,0.5l-1.2,5.4
			l1.2-5.7L67.6,47.7z"/>
		<path class="st6" d="M79,49.2l-0.1-0.6l-0.1-0.6l-0.1-0.3c-0.3-1-1-1.6-2.7-1.6l-2.6,0l-2.4,0h-2.7c-0.2,0-0.3,0.1-0.4,0.3
			L67.8,47l-0.1,0.7l0,0.2l-1.2,5.7L65.2,59c0,0.2,0,0.4,0,0.4c0,0.1,0.3,0.1,0.5,0.1h2.4c0.2,0,0.4,0,0.5-0.1
			c0.1,0,0.2-0.4,0.3-0.5l0.4-2.1l0.4-2.1c0,0,0,0,0,0l0.1-0.3l0.5-2.5l0.5-2.2c0-0.2,0.2-0.3,0.4-0.3l7.7,0
			C79,49.5,79.1,49.4,79,49.2L79,49.2z"/>
		<path class="st6" d="M88.9,44.2c-0.2,0-0.4,0-0.6,0h-2.5c-0.2,0-0.4,0.1-0.5,0.2l-5.4,8c-0.1,0.1-0.2,0.1-0.2,0l-0.4-1.8
			c0-0.2-0.2-0.3-0.4-0.3h-3.5c-0.2,0-0.3,0.1-0.2,0.3l1.6,5.5c0,0.2,0,0.4,0,0.6l-0.7,2.7c0,0.2,0.1,0.3,0.2,0.3h3.5
			c0.2,0,0.3-0.1,0.4-0.3l0.7-2.7c0-0.2,0.2-0.4,0.3-0.5L90,44.4c0.1-0.1,0-0.2-0.1-0.2L88.9,44.2L88.9,44.2z"/>
		<path class="st6" d="M61.1,51.1L61.1,51.1c0,0.2-0.2,0.3-0.3,0.3h-4.4c-0.2,0-0.2-0.1-0.2-0.2c0,0,0,0,0,0c0,0,0,0,0,0
			c0,0,0,0,0,0c0,0,0,0,0-0.1c0.4-1.1,1.3-1.9,2.9-1.9C60.9,49.2,61.3,50.1,61.1,51.1L61.1,51.1z M59.8,45.9c-5.7,0-7,3.5-7.8,6.9
			c-0.8,3.6-0.7,6.9,5.2,6.9h0.2c0,0,0,0,0.1,0h0.4c0,0,0,0,0.1,0l0.2,0h0c0.2,0,0.5,0,0.7,0h0c1.6,0,3.1,0,3.7,0
			c0.2,0,0.3-0.1,0.4-0.3l0.2-1.2l0-0.2l0.3-1.4c0-0.2-0.1-0.3-0.2-0.3H58c-2.1,0-2.7-0.6-2.5-2.2H64l0,0c0,0,0,0,0,0
			c0.1,0,0.3-0.1,0.3-0.2c0,0,0,0,0-0.1l0,0C65.6,49.1,65.2,45.9,59.8,45.9L59.8,45.9z"/>
		<path class="st6" d="M32.9,51l-0.1,0.3l0,0l-0.6,2.3l-0.6,2.3c0,0.2-0.2,0.3-0.4,0.3h-3.4c-2.6,0-3.2-2-2.6-5
			c0.6-3,1.8-4.9,4.4-5.1C33.1,45.8,33.8,48.2,32.9,51L32.9,51z M35.3,56c0,0,1.6-3.9,2-6.1c0.5-3-1-7.3-6.8-7.3
			c-5.8,0-8.3,4.1-9.2,8.6c-1,4.5,0.3,8.5,6,8.5l4.5,0l4.2,0c0.2,0,0.3-0.1,0.4-0.3l0.7-2.8c0-0.2-0.1-0.3-0.2-0.3l-0.7,0l-0.7,0
			C35.3,56.2,35.2,56.2,35.3,56C35.2,56,35.3,56,35.3,56L35.3,56L35.3,56L35.3,56z"/>
		<path class="st6" d="M63.8,53.4c0,0.1-0.1,0.2-0.2,0.2c-0.1,0-0.2-0.1-0.2-0.2s0.1-0.2,0.2-0.2C63.7,53.2,63.8,53.3,63.8,53.4z"/>
	</g>
	<path class="st7" d="M0,0h100v100H0V0z"/>
	<g class="st2">
		<path class="st8" d="M86.9,58.1l3.4,0c0,0-6.2,8.5-6.8,9.2c-0.2,0.2-0.4,0.5-0.5,0.8c-0.3,0.8-0.7,2.4-0.7,2.4l-3.1,0
			c0,0,0.5-1.7,0.5-2.6c0-0.8-0.4-1.6-0.7-2.4c-0.2-0.8-0.5-2.4-0.5-2.4h3.2l0.4,1.7L86.9,58.1"/>
		<path class="st8" d="M80.5,59.9c0.6,0.4,1,2.4,1,2.4s-3.2,0-5,0H75l-1.9,8.1h-2.8c0,0,1.8-8.8,2.2-10.4c0.1-0.5,0.9-0.4,2.3-0.4
			h2.1C78.3,59.7,79.9,59.5,80.5,59.9 M67.4,63.9c0,0,0.1-0.5-0.3-1.1c-0.3-0.5-0.6-0.6-1.5-0.7c-2.5-0.1-2.4,1.7-2.4,1.7L67.4,63.9
			z M70,61.8c0.4,1.3-0.3,4.4-0.3,4.4s-3.6-0.1-5.6,0c-0.6,0-1.3-0.1-1.5,0.2c-0.3,0.4,0.1,1,0.4,1.3c0.3,0.3,1,0.3,1.2,0.4
			c1.6,0.2,4.9,0.1,4.9,0.1l-0.6,2.6c0,0-4.7,0.2-7.1-0.3c-0.5-0.1-0.9-0.3-1.2-0.7c-0.1-0.1-0.2-0.2-0.2-0.3
			c-0.1-0.1-0.2-0.4-0.3-0.6c-0.5-1.4,0.1-4.2,0.7-5.7c0.1-0.2,0.2-0.4,0.2-0.6c0.1-0.2,0.2-0.5,0.3-0.6c0.1-0.1,0.1-0.2,0.2-0.2
			c0.1-0.1,0.2-0.2,0.2-0.3c0.2-0.3,0.5-0.4,0.8-0.7c1-0.7,2.8-1.3,4.9-1.1c0.8,0.1,2,0.4,2.6,1.2C69.9,61,69.9,61.4,70,61.8
			L70,61.8z M57,59.7l2.7,0c0,0-1.5,7.3-2.3,10.8h-3.2c-2.2,0-4.2,0.3-5-1.3c-0.8-1.5,0-4.1,0.3-5.8c0.3-1.2,0.8-3.7,0.8-3.7l2.8,0
			c0,0-0.8,3.9-1.1,5.8c-0.1,0.7-0.4,1.3-0.1,1.9c0.2,0.5,0.6,0.5,1.6,0.5c0.3,0,1.4,0,1.4,0L57,59.7 M44.2,64.9
			c0.3-1,0.7-2.1,0.7-3.1c-0.1-1-0.9-1.9-1.4-2.1c-1.6-0.6-3.1,0.2-3.7,0.9c-0.8,0.8-1,1.8-1.3,3.2c-0.2,1-0.4,2.1,0,2.8
			c0.7,1.4,2.7,1.1,4.9,1.1C43.6,66.9,43.9,65.9,44.2,64.9L44.2,64.9z M48,60.9c0.3,2.3-0.9,4.8-1.7,7c0.8,0.1,1.6,0,1.6,0.1
			c0.1,0.1-0.6,2.6-0.8,2.6c-0.7,0-2.9,0-3.8,0c-3,0-5.9,0.2-7.3-1.3c-0.6-0.6-1-1.7-1.1-2.4c-0.2-1.2,0-2.6,0.3-3.7
			c0.3-1,0.6-2,1.1-2.8c1.3-2.2,3.5-3.9,7.2-3.5c0.7,0.1,1.8,0.4,2.4,0.8c0,0,0.2,0.2,0.2,0.2C47,58.3,47.8,59.7,48,60.9L48,60.9z
			 M34.6,59.7c-0.2,0.8-0.4,1.8-0.6,2.6H31c0.2-0.9,0.4-1.8,0.7-2.6C32.6,59.7,33.5,59.7,34.6,59.7 M30.9,63.1h2.9
			c-0.4,2.1-1.1,5.6-1.7,8c-0.4,1.5-0.6,2.6-1.6,3.4c-0.1,0.1-0.1,0-0.2,0.1c-0.2,0.2-1,0.4-1.5,0.4c-0.8,0.1-1.7,0-2.6,0
			c0.2-0.9,0.5-2,0.8-2.8c2.3,0.3,2.4-1.9,2.8-4C30,66.9,30.7,63.6,30.9,63.1"/>
		<g>
			<path class="st9" d="M24,68.6L24,68.8c-1.1,2.1-3,3.4-5.7,3.4c-1.3,0-2.5-0.3-3.3-0.7c-1.7-0.8-3.1-2.2-3.9-3.7
				c-1.1-2.2-1.3-5.2,1-7.5c0,0-0.3,0.5-0.2,0.5l-0.1,0.2c-1.7,5.3,3.5,9.8,8.5,9.3C21.5,70.2,23.1,69.6,24,68.6"/>
			<path class="st9" d="M21,66.4c1.3,0,2.6-0.6,3.4-1.4c-0.7,1.7-2.7,2.9-5.3,2.5c-2.2-0.3-4.4-2.5-4.6-4.8
				c-0.2-1.6,0.4-2.6,1.4-3.8c-0.3,0.6-0.4,1.1-0.5,1.4C15,63.9,18.1,66.4,21,66.4"/>
			<path class="st9" d="M24.2,62c-0.2,0.5-1.3,1.3-1.8,1.4c-2,0.4-3.3-0.5-3.9-1.6c-0.1-0.2-0.3-0.6-0.3-0.7
				c-0.3-0.9-0.1-2.2,0.6-2.9c-0.2,0.7-0.3,1.4-0.1,1.9c0.1,0.3,0.3,0.8,0.5,1.1c0.4,0.6,0.7,0.7,1.2,1.1c0.2,0.1,0.5,0.3,0.6,0.3
				C21.5,62.8,22.5,63.2,24.2,62"/>
		</g>
	</g>
	<text transform="matrix(1 0 0 1 29.9663 46.7167)" class="st10 st11 st12 st13">NO</text>
</g>
<g class="st0">
	<path class="st7" d="M-0.2,0h100v100h-100V0z"/>
	<path class="st14" d="M78.9,55.8c-2.6,0-4.9,0.6-6.8,1.6c-0.7-1.4-1.4-2.6-1.5-3.5c-0.1-1.1-0.3-1.7-0.1-3c0.2-1.3,0.9-3.1,0.9-3.2
		c0-0.1-0.2-0.8-1.7-0.8s-2.8,0.3-3,0.7c-0.1,0.4-0.4,1.3-0.6,2.2c-0.3,1.4-3,6.3-4.6,8.8c-0.5-1-1-1.9-1-2.6
		c-0.1-1.1-0.3-1.7-0.1-3c0.2-1.3,0.9-3.1,0.9-3.2c0-0.1-0.2-0.8-1.7-0.8c-1.5,0-2.8,0.3-3,0.7c-0.1,0.4-0.3,1.3-0.6,2.2
		c-0.3,0.9-4,9.1-4.9,11.2c-0.5,1.1-0.9,2-1.2,2.5c-0.3,0.6,0,0,0,0.1c-0.3,0.5-0.4,0.8-0.4,0.8v0c-0.2,0.4-0.4,0.7-0.5,0.7
		c-0.1,0-0.2-1,0-2.3c0.5-2.8,1.9-7.3,1.8-7.4c0-0.1,0.2-0.9-0.9-1.2c-1.1-0.4-1.5,0.3-1.5,0.3c-0.1,0-0.2,0.2-0.2,0.2s1.2-5-2.3-5
		c-2.2,0-5.2,2.4-6.6,4.5c-0.9,0.5-2.9,1.6-5,2.8c-0.8,0.4-1.6,0.9-2.4,1.3l-0.2-0.2c-4.2-4.5-12-7.6-11.6-13.7
		c0.1-2.2,0.9-8,14.9-14.9c11.5-5.7,20.7-4.2,22.3-0.7c2.3,5-4.9,14.3-16.9,15.6c-4.6,0.5-6.9-1.2-7.5-1.9c-0.6-0.7-0.7-0.7-1-0.6
		c-0.4,0.2-0.1,0.8,0,1.2c0.4,0.9,1.8,2.6,4.3,3.4c2.2,0.7,7.5,1.1,14-1.4c7.2-2.8,12.9-10.6,11.2-17.1c-1.7-6.6-12.7-8.8-23-5.1
		c-6.2,2.2-12.9,5.6-17.7,10.1c-5.7,5.3-6.6,10-6.3,11.9c1.3,6.9,10.9,11.4,14.7,14.8c-0.2,0.1-0.4,0.2-0.5,0.3
		c-1.9,0.9-9.2,4.7-11,8.8c-2.1,4.6,0.3,7.8,1.9,8.3c4.9,1.4,9.9-1.1,12.6-5.1c2.7-4,2.4-9.3,1.1-11.7l0-0.1l1.5-0.9
		c1-0.6,1.9-1.1,2.8-1.6c-0.5,1.3-0.8,2.8-1,5c-0.2,2.6,0.9,5.9,2.2,7.3c0.6,0.6,1.4,0.6,1.8,0.6c1.6,0,2.3-1.3,3.2-2.9
		c1-2,1.9-4.2,1.9-4.2s-1.1,6.1,1.9,6.1c1.1,0,2.2-1.4,2.7-2.2v0c0,0,0,0,0.1-0.1c0.1-0.1,0.1-0.2,0.2-0.3v0
		c0.4-0.8,1.4-2.5,2.9-5.4c1.9-3.7,3.7-8.4,3.7-8.4s0.2,1.1,0.7,3c0.3,1.1,1,2.3,1.6,3.5c-0.4,0.6-0.7,1-0.7,1l0,0
		c-0.4,0.5-0.7,1-1.2,1.5c-1.5,1.8-3.3,3.8-3.5,4.4c-0.3,0.7-0.2,1.2,0.3,1.6c0.4,0.3,1.1,0.4,1.8,0.3c1.4-0.1,2.3-0.4,2.8-0.6
		c0.7-0.3,1.6-0.7,2.4-1.2c1.5-1.1,2.4-2.6,2.3-4.7c0-1.1-0.4-2.2-0.9-3.3c0.1-0.2,0.3-0.4,0.4-0.6c2.3-3.4,4.1-7.1,4.1-7.1
		s0.2,1.1,0.7,3c0.3,1,0.8,2,1.3,3c-2.2,1.8-3.5,3.8-4,5.2c-0.9,2.5-0.2,3.6,1.1,3.9c0.6,0.1,1.4-0.1,2-0.4c0.8-0.2,1.7-0.7,2.5-1.3
		c1.5-1.1,2.9-2.6,2.8-4.6c0-0.9-0.3-1.9-0.6-2.7c1.8-0.8,4.2-1.2,7.3-0.8c6.5,0.8,7.8,4.8,7.6,6.5c-0.2,1.7-1.6,2.6-2.1,2.9
		c-0.5,0.3-0.6,0.4-0.6,0.6c0.1,0.3,0.3,0.3,0.7,0.2c0.5-0.1,3.4-1.4,3.6-4.5C89.5,60.2,85.7,55.8,78.9,55.8L78.9,55.8z M27,72.5
		c-2.3,2.5-5.5,3.5-6.9,2.7c-1.5-0.9-0.9-4.6,1.9-7.2c1.7-1.6,4-3.1,5.4-4c0.3-0.2,0.8-0.5,1.4-0.9C28.9,63,29,63,29,63
		c0.1-0.1,0.2-0.1,0.4-0.2C30.4,66.5,29.4,69.9,27,72.5L27,72.5z M43.8,61.1c-0.8,2-2.5,7-3.5,6.7c-0.9-0.2-1.4-4-0.2-7.8
		c0.6-1.9,2-4.1,2.7-5c1.3-1.4,2.6-1.9,3-1.3C46.2,54.5,44.3,59.9,43.8,61.1z M57.6,67.7c-0.3,0.2-0.7,0.3-0.8,0.2
		c-0.1-0.1,0.1-0.3,0.1-0.3s1.7-1.9,2.4-2.7c0.4-0.5,0.9-1.1,1.4-1.7v0.2C60.8,65.6,58.6,67.1,57.6,67.7L57.6,67.7z M68.3,65.3
		c-0.3-0.2-0.2-0.8,0.6-2.6c0.3-0.7,1.1-1.9,2.4-3.1c0.2,0.5,0.3,0.9,0.2,1.3C71.6,63.8,69.6,64.9,68.3,65.3z"/>
</g>
<g class="st0">
	<g class="st2">
		
			<linearGradient id="SVGID_1_" gradientUnits="userSpaceOnUse" x1="-1.0441" y1="102.1225" x2="-1.0044" y2="102.0801" gradientTransform="matrix(805.5508 0 0 -795.1891 887.7108 81236.9375)">
			<stop  offset="0" style="stop-color:#F9A03C"/>
			<stop  offset="1" style="stop-color:#F7974E"/>
		</linearGradient>
		<path class="st15" d="M77.8,62.9c0-0.2,0-0.5,0.1-0.7C77.9,62,61.1,46,61.1,46h-0.4C60.7,46,77.7,64,77.8,62.9L77.8,62.9z"/>
		
			<linearGradient id="SVGID_2_" gradientUnits="userSpaceOnUse" x1="-1.0071" y1="104.5962" x2="-0.9312" y2="104.5221" gradientTransform="matrix(392.6758 0 0 -394.6426 415.7019 41314.5781)">
			<stop  offset="0" style="stop-color:#F9A03C"/>
			<stop  offset="1" style="stop-color:#F7974E"/>
		</linearGradient>
		<path class="st16" d="M42,57.4c0,0,0,0.1-0.1,0.1c0,0.1,0,0.1-0.1,0.2c-0.5,1.1,7.5,9,8.1,8c0,0,0.1-0.1,0.1-0.1
			c0,0,0.1-0.1,0.1-0.1C50.7,64.7,42.3,56.9,42,57.4L42,57.4z"/>
		
			<linearGradient id="SVGID_3_" gradientUnits="userSpaceOnUse" x1="-2.2405" y1="105.9432" x2="-2.1729" y2="105.8658" gradientTransform="matrix(400.7761 0 0 -389.963 931.8647 41360.6914)">
			<stop  offset="0" style="stop-color:#F9A03C"/>
			<stop  offset="1" style="stop-color:#F7974E"/>
		</linearGradient>
		<path class="st17" d="M53.4,68.4c0,0-0.2,0.3-0.3,0.5c0,0,7.8,7.8,7.8,7.8h0.7C61.6,76.8,54.2,68.8,53.4,68.4z"/>
		
			<linearGradient id="SVGID_4_" gradientUnits="userSpaceOnUse" x1="1.0122" y1="100.9899" x2="1.0273" y2="100.9698" gradientTransform="matrix(2498.3396 0 0 -2363.3909 -2497.3396 238703.4688)">
			<stop  offset="0" style="stop-color:#F26D58"/>
			<stop  offset="1" style="stop-color:#F9A03C"/>
		</linearGradient>
		<path class="st18" d="M77.9,62.1c-0.4,8.1-7.1,14.7-15.3,14.7h-1.1l-8.2-8.1c0.7-1,1.3-1.9,1.9-3h7.5c2.4,0,4.3-1.9,4.3-4.3
			c0-2.4-1.9-4.3-4.3-4.3h-4.4c0.3-1.8,0.5-3.6,0.5-5.5c0-1.9-0.2-3.8-0.5-5.6h2.7l17,16.7C77.9,62.5,77.9,62.3,77.9,62.1L77.9,62.1
			z M29.2,26.4h-4.5v11.1h4.5c7.8,0,14.1,6.3,14.1,14.1c0,2.1-0.5,4.1-1.3,5.9l8.1,8c2.7-4,4.2-8.8,4.2-14
			C54.4,37.7,43.1,26.4,29.2,26.4z"/>
		
			<linearGradient id="SVGID_5_" gradientUnits="userSpaceOnUse" x1="0.4387" y1="100.9841" x2="0.461" y2="100.9695" gradientTransform="matrix(1569.598 0 0 -1707.1244 -639.0558 172420.5625)">
			<stop  offset="0" style="stop-color:#B84E51"/>
			<stop  offset="1" style="stop-color:#F68E48"/>
		</linearGradient>
		<path class="st19" d="M62.6,26.4H44.5c4.4,2.7,8.1,6.5,10.6,11.1h7.5c2.4,0,4.3,1.9,4.3,4.3c0,2.4-1.9,4.3-4.3,4.3h-1.7l17,16.7
			c0-0.5,0.1-0.9,0.1-1.4c0-3.7-1.3-7.2-3.6-9.8c2.2-2.7,3.6-6.1,3.6-9.8C77.9,33.3,71,26.4,62.6,26.4z"/>
		
			<linearGradient id="SVGID_6_" gradientUnits="userSpaceOnUse" x1="1.0237" y1="102.5494" x2="1.0248" y2="102.5231" gradientTransform="matrix(1726.1868 0 0 -904.572 -1725.1868 92825.4531)">
			<stop  offset="0" style="stop-color:#F9A03C"/>
			<stop  offset="1" style="stop-color:#F7974E"/>
		</linearGradient>
		<path class="st20" d="M61.5,76.8H44.6c3.4-2.1,6.3-4.9,8.6-8.1L61.5,76.8L61.5,76.8z M50.1,65.6l-8.1-8c-2.3,4.8-7.2,8.2-12.8,8.2
			h-4.5v11.1h4.5C37.9,76.8,45.6,72.4,50.1,65.6z"/>
	</g>
	<path class="st7" d="M0,0h100v100H0V0z"/>
</g>
<g>
	<path class="st21" d="M15,85h70V15H15V85z M16.8,83.2V18l32.3,65.3h1.8L18,16.8H82L50,81.4l0.9,1.8L83.2,18v65.3H16.8z"/>
	<text transform="matrix(1 0 0 1 12.6665 58.5003)" class="st22 st23 st24">getmdl</text>
	<path class="st25" d="M0,0h100v100H0V0z"/>
</g>
</svg>
