<svg xmlns="http://www.w3.org/2000/svg" width="74" height="45" viewBox="0 0 74 45">
    <g fill="none" fill-rule="evenodd">
        <path d="M-18-33H92V77H-18z"/>
        <g fill="#4285F4" fill-rule="nonzero">
            <path d="M7.85 16.83c.66-1.65 1.54-3.19 2.42-4.73.88-1.54 1.87-2.97 2.86-4.07.99-1.21 1.98-2.2 2.97-2.86.99-.66 1.87-1.1 2.75-1.1.55 0 1.1.11 1.54.44.44.33.88.77 1.32 1.54.44.77.88 1.43 1.21 1.87.33.44.77.66 1.21.66.44 0 .88-.22 1.21-.66.33-.44.55-.99.55-1.65 0-.33 0-.55-.11-.99-.11-.33-.22-.66-.44-.99-.99-1.43-1.98-2.42-3.08-3.08-1.1-.66-2.2-.99-3.41-.99-.99 0-2.09.22-3.08.66-.99.44-2.09 1.1-3.08 1.87-.99.77-1.98 1.76-2.97 2.75-.99 1.1-1.87 2.2-2.75 3.52-.88 1.32-1.65 2.64-2.31 4.07-.66 1.43-1.32 2.86-1.87 4.4-.55 1.54-.99 2.97-1.32 4.51-.33 1.54-.55 2.97-.66 4.4v.66c0 .77.11 1.65.33 2.42.22.77.55 1.54.99 2.2.44.66.99 1.21 1.65 1.54.66.44 1.43.55 2.31.55.77 0 1.65-.22 2.42-.55.88-.33 1.65-.88 2.53-1.43.88-.55 1.65-1.32 2.42-1.98.66-.55 1.21-1.21 1.76-1.76-.22.55-.33 1.1-.55 1.76-.33.99-.55 1.87-.77 2.64-.22.88-.44 1.65-.66 2.2-.22.66-.22 1.1-.33 1.43v.66c0 .77.11 1.32.33 1.54.22.33.55.44.99.44.22 0 .55-.11.77-.33l.66-.66c.22-.22.33-.55.55-.88.11-.33.22-.55.33-.77 0-.11.11-.33.22-.77.11-.33.22-.88.44-1.54.11-.55.33-1.21.55-1.98l.66-2.31c.33-.88.44-1.65.66-2.31l.66-1.98c.22-.55.33-1.1.44-1.54.22-.55.22-.66.22-.66.22-.66.44-1.21.66-1.87.22-.55.44-1.21.66-1.87.22-.55.33-1.21.44-1.87.11-.66.22-1.32.22-2.09 0-.33 0-.55-.11-.77-.11-.22-.22-.44-.33-.55-.11-.11-.33-.22-.55-.33-.22-.11-.44-.11-.55-.11-.44 0-.77.11-1.21.44-.33.22-.66.66-.88 1.32l-1.76 5.28c-.22.44-.55.99-.99 1.54-.44.55-.88 1.21-1.43 1.87-.55.66-1.21 1.32-1.76 1.98-.66.66-1.32 1.21-1.87 1.76-.66.55-1.21.88-1.87 1.21-.55.33-1.1.44-1.54.44-.44 0-.66-.11-.99-.33-.22-.22-.44-.55-.66-.88-.11-.33-.22-.77-.33-1.21-.11-.44-.11-.88-.11-1.32 0-1.21.22-2.64.66-4.18.55-1.43 1.1-3.08 1.76-4.62zM73.41 22.11c-.22-.33-.44-.44-.77-.44-.11 0-.33 0-.55.11-.22.11-.33.22-.55.33a85.384 85.384 0 0 1-4.29 3.74c-1.1.99-2.09 1.76-2.86 2.42-.77.55-1.32.99-1.76 1.21-.44.33-.77.33-.88.33-.22 0-.44 0-.44-.11-.11-.11-.11-.22-.11-.33 0 0 .11-.22.44-.66.33-.44.77-.88 1.21-1.43.44-.55.99-1.1 1.54-1.87.55-.66 1.1-1.32 1.54-2.09.44-.66.88-1.43 1.21-2.09.33-.66.44-1.43.44-1.98 0-.44-.11-.88-.33-1.32-.22-.33-.44-.66-.88-.88-.33-.22-.77-.44-1.1-.55-.44-.11-.88-.22-1.32-.22-.66 0-1.21.11-1.87.44-.66.22-1.21.55-1.76.99-.55.44-1.1.88-1.76 1.32-.44.33-.77.77-1.1 1.1 0-.11.11-.33.11-.55 0-.22.11-.44.11-.66v-.44c0-.44-.11-.88-.33-1.1-.22-.22-.66-.44-1.21-.44-.33 0-.77.22-.99.55-.33.33-.55.77-.77 1.32-.22.44-.44.99-.66 1.43-.22.44-.33.88-.44 1.1-.11.55-.33 1.21-.55 1.76-.11 0-.22.11-.33.22l-1.21 1.21c-.44.44-.88.88-1.43 1.32-.55.44-.99.88-1.54 1.21-.55.44-.99.77-1.43 1.1-.44.33-.88.55-1.32.77-.33.22-.66.22-.99.22-.22 0-.33-.11-.33-.11-.11-.11-.11-.22-.11-.44 0-.33.11-.77.22-1.21.11-.44.22-.88.44-1.21.33-.88.77-1.87 1.1-2.86.44-1.21.99-2.31 1.43-3.52.44-1.21.99-2.42 1.54-3.74.55-1.21.99-2.53 1.54-3.74.55-1.32.99-2.31 1.43-3.3.44-.99.77-1.87 1.1-2.53.11-.33.33-.66.44-.99.11-.33.22-.66.22-.88 0-.66-.22-1.1-.55-1.32-.33-.22-.77-.44-1.21-.44-.44 0-.88.11-1.21.33-.44.22-.77.66-.99 1.32l-5.72 14.52c-.33.88-.77 1.98-1.21 3.19-.44 1.1-.88 2.2-1.32 3.52l-.66 1.98c-.11.11-.33.22-.44.33-.66.44-1.21.88-1.76 1.1-.55.22-.99.44-1.43.44-.44 0-.66-.22-.66-.66 0-.55.11-1.21.22-1.87.22-.66.44-1.43.66-2.09.22-.66.55-1.43.88-2.09.33-.77.55-1.43.88-1.98l.66-1.65c.22-.44.22-.88.22-1.21 0-.55-.11-.99-.44-1.32-.33-.33-.66-.55-1.21-.55-.44 0-.88.22-1.1.55-.33.33-.55.77-.77 1.32-.22.55-.44 1.1-.55 1.65l-.66 1.65c-.33.77-.77 1.54-1.32 2.53-.55.88-1.1 1.76-1.76 2.53-.66.77-1.32 1.43-2.09 1.98-.77.55-1.43.77-2.31.77a.84.84 0 0 1-.55-.22c-.11-.22-.22-.44-.22-.66 0-.66.11-1.32.33-1.98l.66-1.98c.22-.66.55-1.32.88-1.87.33-.55.55-1.1.88-1.76.33-.55.55-.99.77-1.43.22-.44.33-.77.44-.99 0-.11.11-.33.11-.44 0-.22-.11-.44-.22-.66a.859.859 0 0 0-.44-.44c-.22-.11-.33-.22-.55-.22-.22 0-.44-.11-.55-.11-.44 0-.88.11-1.21.44-.33.22-.66.66-.99 1.32-.99 2.2-1.87 4.07-2.42 5.5-.55 1.54-.99 2.75-1.32 3.74-.22.99-.44 1.65-.44 2.09v.11l-.11.55c0 .66.11 1.21.33 1.65.22.44.44.77.77 1.1.33.22.66.44 1.1.55.44.11.77.11 1.21.11.99 0 1.87-.11 2.64-.44s1.54-.77 2.2-1.21c.66-.55 1.21-1.1 1.76-1.65.33-.33.55-.77.88-1.1-.11.66-.11 1.21-.11 1.65 0 .99.22 1.76.66 2.2.44.44.99.66 1.54.66.66 0 1.32-.22 2.09-.55.77-.33 1.54-.77 2.31-1.32.11-.11.33-.22.44-.33v.22c.11.44.22.77.44 1.1.22.33.55.55.88.77.33.22.77.22 1.32.22.77 0 1.54-.22 2.42-.55.77-.33 1.65-.88 2.42-1.43.66-.55 1.43-1.1 2.09-1.76 0 .11-.11.22-.11.22-.66 1.43-1.32 2.97-2.09 4.51-.77 1.54-1.43 3.08-2.09 4.51-.11.22-.22.55-.33.88-.11.33-.22.55-.33.88l-.33.99c-.11.33-.11.66-.11.99 0 .66.22 1.1.55 1.32.33.22.77.33 1.21.33.33 0 .77-.11.99-.22.33-.11.55-.44.77-.66.22-.22.44-.55.66-.99.22-.33.33-.77.44-1.1 0-.11.11-.44.22-.77s.33-.77.44-1.32c.22-.55.44-1.1.55-1.54.22-.44.33-.88.44-1.32l.11-.44c.22-.44.33-.88.44-1.21.11-.44.22-.66.33-.77 0-.11.11-.22.22-.55.11-.22.22-.44.22-.66l.11-.33c.11-.33.33-.66.55-1.1.22-.44.33-.77.55-1.21.22-.44.33-.77.44-.99.11-.33.22-.55.33-.66.22-.55.55-1.1.88-1.76.33-.55.77-1.21 1.21-1.87.44-.55.88-1.21 1.43-1.76.44-.55.99-1.1 1.54-1.54.55-.44.99-.77 1.54-.99.55-.22.99-.33 1.54-.33.22 0 .44 0 .55.11.11.11.11.22.11.33 0 .22-.11.66-.44 1.1-.33.44-.66.99-1.1 1.54-.55.66-.99 1.21-1.54 1.87-.55.66-1.1 1.32-1.54 1.87-.44.66-.88 1.21-1.21 1.87-.33.55-.55 1.1-.66 1.65v.44c0 .77.33 1.43.88 1.87.55.44 1.32.66 2.31.66s1.98-.22 2.97-.55c.88-.44 1.87-.99 2.75-1.65.99-.66 1.98-1.54 2.97-2.53 1.1-.99 2.31-2.09 3.63-3.3.33-.33.66-.66.77-1.1.22-.44.22-.88.22-1.21.55-.88.44-1.21.33-1.43z"/>
        </g>
    </g>
</svg>
