<svg xmlns="http://www.w3.org/2000/svg" width="67" height="41" viewBox="0 0 67 41">
    <g fill="none" fill-rule="evenodd">
        <path d="M-17-30H83V70H-17z"/>
        <g fill="#4285F4" fill-rule="nonzero">
            <path d="M6.5 15.3c.6-1.5 1.4-2.9 2.2-4.3.8-1.4 1.7-2.7 2.6-3.7.9-1.1 1.8-2 2.7-2.6.9-.6 1.7-1 2.5-1 .5 0 1 .1 1.4.4.4.3.8.7 1.2 1.4.4.7.8 1.3 1.1 1.7.3.4.7.6 1.1.6.4 0 .8-.2 1.1-.6.3-.4.5-.9.5-1.5 0-.3 0-.5-.1-.9-.1-.3-.2-.6-.4-.9-.9-1.3-1.8-2.2-2.8-2.8-1-.6-2-.9-3.1-.9-.9 0-1.9.2-2.8.6-.9.4-1.9 1-2.8 1.7-.9.7-1.8 1.6-2.7 2.5-.9 1-1.7 2-2.5 3.2-.8 1.2-1.5 2.4-2.1 3.7-.6 1.3-1.2 2.6-1.7 4S1 18.6.7 20c-.3 1.4-.5 2.7-.6 4v.6c0 .7.1 1.5.3 2.2.2.7.5 1.4.9 2 .4.6.9 1.1 1.5 1.4.6.4 1.3.5 2.1.5.7 0 1.5-.2 2.2-.5.8-.3 1.5-.8 2.3-1.3.8-.5 1.5-1.2 2.2-1.8.6-.5 1.1-1.1 1.6-1.6-.2.5-.3 1-.5 1.6-.3.9-.5 1.7-.7 2.4-.2.8-.4 1.5-.6 2-.2.6-.2 1-.3 1.3v.6c0 .7.1 1.2.3 1.4.2.3.5.4.9.4.2 0 .5-.1.7-.3l.6-.6c.2-.2.3-.5.5-.8.1-.3.2-.5.3-.7 0-.1.1-.3.2-.7.1-.3.2-.8.4-1.4.1-.5.3-1.1.5-1.8l.6-2.1c.3-.8.4-1.5.6-2.1l.6-1.8c.2-.5.3-1 .4-1.4.2-.5.2-.6.2-.6.2-.6.4-1.1.6-1.7.2-.5.4-1.1.6-1.7.2-.5.3-1.1.4-1.7.1-.6.2-1.2.2-1.9 0-.3 0-.5-.1-.7-.1-.2-.2-.4-.3-.5-.1-.1-.3-.2-.5-.3-.2-.1-.4-.1-.5-.1-.4 0-.7.1-1.1.4-.3.2-.6.6-.8 1.2l-1.6 4.8c-.2.4-.5.9-.9 1.4-.4.5-.8 1.1-1.3 1.7-.5.6-1.1 1.2-1.6 1.8-.6.6-1.2 1.1-1.7 1.6-.6.5-1.1.8-1.7 1.1-.5.3-1 .4-1.4.4-.4 0-.6-.1-.9-.3-.2-.2-.4-.5-.6-.8-.1-.3-.2-.7-.3-1.1-.1-.4-.1-.8-.1-1.2 0-1.1.2-2.4.6-3.8.5-1.3 1-2.8 1.6-4.2zM66.1 20.1c-.2-.3-.4-.4-.7-.4-.1 0-.3 0-.5.1s-.3.2-.5.3c-1.5 1.4-2.8 2.5-3.9 3.4-1 .9-1.9 1.6-2.6 2.2-.7.5-1.2.9-1.6 1.1-.4.3-.7.3-.8.3-.2 0-.4 0-.4-.1-.1-.1-.1-.2-.1-.3 0 0 .1-.2.4-.6.3-.4.7-.8 1.1-1.3.4-.5.9-1 1.4-1.7.5-.6 1-1.2 1.4-1.9.4-.6.8-1.3 1.1-1.9.3-.6.4-1.3.4-1.8 0-.4-.1-.8-.3-1.2-.2-.3-.4-.6-.8-.8-.3-.2-.7-.4-1-.5-.4-.1-.8-.2-1.2-.2-.6 0-1.1.1-1.7.4-.6.2-1.1.5-1.6.9s-1 .8-1.6 1.2c-.4.3-.7.7-1 1 0-.1.1-.3.1-.5s.1-.4.1-.6v-.4c0-.4-.1-.8-.3-1-.2-.2-.6-.4-1.1-.4-.3 0-.7.2-.9.5-.3.3-.5.7-.7 1.2-.2.4-.4.9-.6 1.3-.2.4-.3.8-.4 1-.1.5-.3 1.1-.5 1.6-.1 0-.2.1-.3.2l-1.1 1.1c-.4.4-.8.8-1.3 1.2-.5.4-.9.8-1.4 1.1-.5.4-.9.7-1.3 1-.4.3-.8.5-1.2.7-.3.2-.6.2-.9.2-.2 0-.3-.1-.3-.1-.1-.1-.1-.2-.1-.4 0-.3.1-.7.2-1.1.1-.4.2-.8.4-1.1.3-.8.7-1.7 1-2.6.4-1.1.9-2.1 1.3-3.2s.9-2.2 1.4-3.4c.5-1.1.9-2.3 1.4-3.4.5-1.2.9-2.1 1.3-3 .4-.9.7-1.7 1-2.3.1-.3.3-.6.4-.9.1-.3.2-.6.2-.8 0-.6-.2-1-.5-1.2-.3-.2-.7-.4-1.1-.4-.4 0-.8.1-1.1.3-.4.2-.7.6-.9 1.2l-5.2 13.2c-.3.8-.7 1.8-1.1 2.9-.4 1-.8 2-1.2 3.2l-.6 1.8c-.1.1-.3.2-.4.3-.6.4-1.1.8-1.6 1-.5.2-.9.4-1.3.4s-.6-.2-.6-.6c0-.5.1-1.1.2-1.7.2-.6.4-1.3.6-1.9.2-.6.5-1.3.8-1.9.3-.7.5-1.3.8-1.8l.6-1.5c.2-.4.2-.8.2-1.1 0-.5-.1-.9-.4-1.2-.3-.3-.6-.5-1.1-.5-.4 0-.8.2-1 .5-.3.3-.5.7-.7 1.2-.2.5-.4 1-.5 1.5l-.6 1.5c-.3.7-.7 1.4-1.2 2.3-.5.8-1 1.6-1.6 2.3-.6.7-1.2 1.3-1.9 1.8s-1.3.7-2.1.7c-.2 0-.4-.1-.5-.2-.1-.2-.2-.4-.2-.6 0-.6.1-1.2.3-1.8l.6-1.8c.2-.6.5-1.2.8-1.7.3-.5.5-1 .8-1.6.3-.5.5-.9.7-1.3.2-.4.3-.7.4-.9 0-.1.1-.3.1-.4 0-.2-.1-.4-.2-.6-.1-.2-.2-.3-.4-.4-.2-.1-.3-.2-.5-.2s-.4-.1-.5-.1c-.4 0-.8.1-1.1.4-.3.2-.6.6-.9 1.2-.9 2-1.7 3.7-2.2 5-.5 1.4-.9 2.5-1.2 3.4-.2.9-.4 1.5-.4 1.9v.1l-.1.5c0 .6.1 1.1.3 1.5.2.4.4.7.7 1 .3.2.6.4 1 .5.4.1.7.1 1.1.1.9 0 1.7-.1 2.4-.4.7-.3 1.4-.7 2-1.1.6-.5 1.1-1 1.6-1.5.3-.3.5-.7.8-1-.1.6-.1 1.1-.1 1.5 0 .9.2 1.6.6 2 .4.4.9.6 1.4.6.6 0 1.2-.2 1.9-.5s1.4-.7 2.1-1.2c.1-.1.3-.2.4-.3v.2c.1.4.2.7.4 1 .2.3.5.5.8.7.3.2.7.2 1.2.2.7 0 1.4-.2 2.2-.5.7-.3 1.5-.8 2.2-1.3.6-.5 1.3-1 1.9-1.6 0 .1-.1.2-.1.2-.6 1.3-1.2 2.7-1.9 4.1-.7 1.4-1.3 2.8-1.9 4.1-.1.2-.2.5-.3.8-.1.3-.2.5-.3.8l-.3.9c-.1.3-.1.6-.1.9 0 .6.2 1 .5 1.2.3.2.7.3 1.1.3.3 0 .7-.1.9-.2.3-.1.5-.4.7-.6.2-.2.4-.5.6-.9.2-.3.3-.7.4-1 0-.1.1-.4.2-.7.1-.3.3-.7.4-1.2.2-.5.4-1 .5-1.4.2-.4.3-.8.4-1.2l.1-.4c.2-.4.3-.8.4-1.1.1-.4.2-.6.3-.7 0-.1.1-.2.2-.5.1-.2.2-.4.2-.6l.1-.3c.1-.3.3-.6.5-1s.3-.7.5-1.1c.2-.4.3-.7.4-.9.1-.3.2-.5.3-.6.2-.5.5-1 .8-1.6.3-.5.7-1.1 1.1-1.7.4-.5.8-1.1 1.3-1.6.4-.5.9-1 1.4-1.4.5-.4.9-.7 1.4-.9.5-.2.9-.3 1.4-.3.2 0 .4 0 .5.1.1.1.1.2.1.3 0 .2-.1.6-.4 1-.3.4-.6.9-1 1.4-.5.6-.9 1.1-1.4 1.7-.5.6-1 1.2-1.4 1.7-.4.6-.8 1.1-1.1 1.7-.3.5-.5 1-.6 1.5v.4c0 .7.3 1.3.8 1.7.5.4 1.2.6 2.1.6.9 0 1.8-.2 2.7-.5.8-.4 1.7-.9 2.5-1.5.9-.6 1.8-1.4 2.7-2.3 1-.9 2.1-1.9 3.3-3 .3-.3.6-.6.7-1 .2-.4.2-.8.2-1.1.5-.8.4-1.1.3-1.3z"/>
        </g>
    </g>
</svg>
