<svg id="Layer_1" data-name="Layer 1" xmlns="http://www.w3.org/2000/svg" viewBox="0 0 110 110"><defs><style>.cls-1{fill:#e44f26;}.cls-2{fill:#f1662a;}.cls-3{fill:#ebebeb;}.cls-4{fill:#010101;}.cls-5{fill:#fff;}</style></defs><title>html</title><polygon class="cls-1" points="28.67 93.64 22.81 27.92 87.19 27.92 81.32 93.63 54.96 100.93 28.67 93.64"/><polygon class="cls-2" points="55 95.35 76.3 89.44 81.31 33.3 55 33.3 55 95.35"/><polygon class="cls-3" points="55 57.67 44.34 57.67 43.6 49.41 55 49.41 55 41.35 54.97 41.35 34.79 41.35 34.98 43.52 36.96 65.73 55 65.73 55 57.67"/><polygon class="cls-3" points="55 78.6 54.97 78.61 45.99 76.19 45.41 69.76 41.05 69.76 37.32 69.76 38.45 82.41 54.96 87 55 86.98 55 78.6"/><path class="cls-4" d="M28.8,10.06h4.1v4h3.74v-4h4.1V22.32h-4.1V18.21H32.9v4.11H28.8V10.06Z"/><path class="cls-4" d="M46.12,14.13h-3.6V10.06H53.83v4.07H50.22v8.19H46.13V14.13Z"/><path class="cls-4" d="M55.62,10.06h4.27l2.63,4.31,2.63-4.31h4.27V22.32H65.34V16.24L62.52,20.6h-.07l-2.82-4.36v6.08h-4V10.06Z"/><path class="cls-4" d="M71.46,10.06h4.09v8.21h5.76v4.05H71.46V10.06Z"/><polygon class="cls-5" points="54.97 57.67 54.97 65.73 64.9 65.73 63.96 76.18 54.97 78.61 54.97 86.99 71.5 82.41 71.62 81.05 73.51 59.83 73.71 57.67 71.53 57.67 54.97 57.67"/><polygon class="cls-5" points="54.97 41.35 54.97 46.36 54.97 49.4 54.97 49.41 74.41 49.41 74.41 49.41 74.44 49.41 74.6 47.6 74.97 43.52 75.16 41.35 54.97 41.35"/></svg>