<svg id="Layer_1" data-name="Layer 1" xmlns="http://www.w3.org/2000/svg" viewBox="0 0 110 110"><defs><style>.cls-1{fill:#4285f4;}</style></defs><title>html-blue</title><path class="cls-1" d="M28.8,10.06h4.1v4h3.74v-4h4.1V22.32h-4.1V18.21H32.9v4.11H28.8V10.06Z"/><path class="cls-1" d="M46.12,14.13h-3.6V10.06H53.83v4.07H50.22v8.19H46.13V14.13Z"/><path class="cls-1" d="M55.62,10.06h4.27l2.63,4.31,2.63-4.31h4.27V22.32H65.34V16.24L62.52,20.6h-.07l-2.82-4.36v6.08h-4V10.06Z"/><path class="cls-1" d="M71.46,10.06h4.09v8.21h5.76v4.05H71.46V10.06Z"/><path class="cls-1" d="M22.81,27.92l5.86,65.72L55,100.93l26.36-7.3,5.87-65.71ZM75,43.52,74.6,47.6l-.16,1.81H43.6l.74,8.26H73.71l-.2,2.16L71.62,81.05l-.13,1.36L55,87h0L38.45,82.41,37.32,69.76h8.09L46,76.18l9,2.43h0l9-2.43.94-10.45H37L35,43.52l-.19-2.17H75.16Z"/></svg>