<?xml version="1.0" encoding="utf-8"?>
<!-- Generator: Adobe Illustrator 22.0.1, SVG Export Plug-In . SVG Version: 6.00 Build 0)  -->
<svg version="1.1" id="Layer_1" xmlns="http://www.w3.org/2000/svg" xmlns:xlink="http://www.w3.org/1999/xlink" x="0px" y="0px"
	 viewBox="0 0 100 100" style="enable-background:new 0 0 100 100;" xml:space="preserve">
<style type="text/css">
	.st0{fill:none;}
	.st1{fill:#1A1918;}
	.st2{fill:#21609B;}
</style>
<g>
	<path class="st0" d="M0,0h100v100H0V0z"/>
	<g>
		<g>
			<path class="st1" d="M90.2,33.2h3.6c0,0-6.7,9.1-7.3,9.9c-0.2,0.2-0.4,0.5-0.6,0.8c-0.3,0.8-0.7,2.6-0.7,2.6h-3.3
				c0,0,0.5-1.8,0.5-2.8c0-0.9-0.5-1.7-0.7-2.6c-0.2-0.9-0.6-2.6-0.6-2.6h3.4l0.5,1.9L90.2,33.2"/>
			<path class="st1" d="M83.3,35.1c0.7,0.4,1.1,2.6,1.1,2.6s-3.5,0.1-5.4,0.1h-1.6l-2,8.7h-3c0,0,1.9-9.4,2.3-11.1
				c0.1-0.6,1-0.5,2.4-0.5h2.3C80.8,34.8,82.6,34.7,83.3,35.1 M69.1,39.3c0,0,0.1-0.6-0.3-1.2c-0.4-0.6-0.7-0.7-1.6-0.7
				c-2.6-0.1-2.6,1.9-2.6,1.9H69.1z M72,37.1c0.4,1.4-0.4,4.7-0.4,4.7s-3.9-0.1-6,0c-0.7,0-1.4-0.1-1.6,0.2
				c-0.3,0.4,0.1,1.1,0.4,1.4c0.4,0.3,1.1,0.4,1.3,0.4c1.7,0.2,5.3,0.1,5.3,0.1l-0.6,2.8c0,0-5.1,0.3-7.6-0.4
				c-0.5-0.1-1-0.4-1.3-0.7c-0.1-0.1-0.2-0.2-0.2-0.3c-0.1-0.1-0.3-0.4-0.3-0.6c-0.6-1.5,0.1-4.5,0.7-6.1c0.1-0.2,0.2-0.4,0.3-0.6
				c0.1-0.2,0.2-0.5,0.3-0.7c0.1-0.1,0.1-0.2,0.2-0.3c0.1-0.1,0.2-0.2,0.3-0.3c0.2-0.3,0.5-0.5,0.8-0.7c1.1-0.8,3-1.4,5.3-1.2
				c0.9,0.1,2.2,0.4,2.8,1.3C71.8,36.3,71.9,36.7,72,37.1L72,37.1z M58,34.8h3c0,0-1.6,7.8-2.5,11.6h-3.4c-2.4,0-4.5,0.3-5.4-1.4
				s0-4.4,0.4-6.2c0.3-1.3,0.9-4,0.9-4h3.1c0,0-0.9,4.2-1.2,6.2c-0.1,0.7-0.4,1.4-0.1,2c0.3,0.5,0.6,0.6,1.8,0.6c0.4,0,1.5,0,1.5,0
				L58,34.8 M44.1,40.5c0.3-1.1,0.8-2.3,0.7-3.3c-0.1-1.1-1-2-1.5-2.2c-1.7-0.6-3.3,0.2-4,0.9c-0.8,0.9-1.1,2-1.4,3.4
				c-0.2,1.1-0.4,2.2,0,3c0.7,1.5,2.9,1.2,5.3,1.2C43.6,42.6,43.9,41.5,44.1,40.5L44.1,40.5z M48.3,36.1c0.3,2.5-1,5.2-1.9,7.5
				c0.9,0.1,1.7,0,1.8,0.1s-0.6,2.8-0.8,2.8c-0.7,0-3.1,0-4.1,0c-3.3,0-6.3,0.2-7.9-1.4c-0.6-0.7-1.1-1.8-1.2-2.6
				c-0.2-1.3,0-2.8,0.4-4c0.3-1.1,0.6-2.1,1.2-3.1c1.4-2.4,3.8-4.2,7.7-3.8c0.8,0.1,1.9,0.4,2.6,0.8c0,0,0.2,0.2,0.3,0.2
				C47.2,33.4,48.1,34.8,48.3,36.1L48.3,36.1z M33.8,34.8c-0.2,0.9-0.4,1.9-0.6,2.8H30c0.3-1,0.4-2,0.7-2.8
				C31.7,34.8,32.7,34.8,33.8,34.8 M29.8,38.5H33c-0.4,2.3-1.2,6-1.9,8.6c-0.4,1.6-0.7,2.8-1.8,3.6c-0.1,0.1-0.2,0-0.2,0.1
				c-0.2,0.2-1.1,0.4-1.6,0.5c-0.8,0.1-1.8,0-2.8,0c0.3-1,0.6-2.2,0.8-3c2.5,0.3,2.6-2.1,3-4.3C28.8,42.5,29.7,39,29.8,38.5"/>
			<g>
				<path class="st2" d="M22.4,44.4l-0.1,0.2c-1.2,2.3-3.2,3.6-6.1,3.7c-1.4,0-2.7-0.3-3.5-0.7c-1.8-0.8-3.4-2.4-4.2-4
					c-1.2-2.3-1.4-5.6,1.1-8l-0.3,0.5l-0.1,0.2c-1.8,5.7,3.8,10.5,9.2,10C19.8,46.2,21.4,45.5,22.4,44.4"/>
				<path class="st2" d="M19.2,42.1c1.4,0,2.8-0.6,3.6-1.5c-0.7,1.9-2.9,3.1-5.7,2.7c-2.4-0.3-4.7-2.7-4.9-5.2
					c-0.2-1.8,0.4-2.8,1.5-4.1c-0.4,0.7-0.5,1.2-0.5,1.5C12.7,39.3,16.1,42.1,19.2,42.1"/>
				<path class="st2" d="M22.7,37.4c-0.2,0.5-1.4,1.4-2,1.5c-2.1,0.5-3.5-0.6-4.2-1.7c-0.1-0.2-0.3-0.6-0.3-0.8
					c-0.3-0.9-0.2-2.4,0.7-3.1c-0.2,0.7-0.3,1.5-0.2,2.1c0.1,0.3,0.3,0.9,0.6,1.2c0.4,0.6,0.7,0.8,1.3,1.1c0.3,0.2,0.5,0.3,0.6,0.3
					C19.7,38.2,20.8,38.6,22.7,37.4"/>
			</g>
		</g>
		<g>
			<path class="st2" d="M33.7,67.9h-5.4l-1,5.7H24l2.5-14.2h9.2L35.3,62h-5.9l-0.6,3.3h5.4L33.7,67.9z"/>
			<path class="st2" d="M42.8,68.5H41l-0.9,5h-3.3l2.5-14.2h5c1.6,0,2.8,0.4,3.7,1.1c0.9,0.8,1.3,1.8,1.2,3.1
				c-0.1,1-0.4,1.9-0.9,2.6c-0.5,0.7-1.2,1.2-2.2,1.6l1.9,5.7v0.2h-3.6L42.8,68.5z M41.4,65.9h2c0.5,0,1-0.1,1.4-0.4
				s0.7-0.6,0.8-1.1c0.2-0.5,0.2-0.9,0.1-1.3c-0.1-0.7-0.6-1.1-1.4-1.1H42L41.4,65.9z"/>
			<path class="st2" d="M61.1,67.5h-5.2l-0.6,3.4h6.2L61,73.5h-9.5L54,59.3h9.5L63,62h-6.2l-0.5,3h5.2L61.1,67.5z"/>
			<path class="st2" d="M74.1,67.5h-5.2l-0.6,3.4h6.2L74,73.5h-9.5L67,59.3h9.5L76,62h-6.2l-0.5,3h5.2L74.1,67.5z"/>
		</g>
	</g>
</g>
</svg>
