<svg xmlns="http://www.w3.org/2000/svg" width="89" height="55" viewBox="0 0 89 55">
    <g fill="none" fill-rule="evenodd">
        <path d="M-11-28H99V82H-11z"/>
        <g fill="#4285F4" fill-rule="nonzero">
            <path d="M84.59 35.91h3.74s-6.82 9.35-7.48 10.12c-.22.22-.44.55-.55.88-.33.88-.77 2.64-.77 2.64h-3.41s.55-1.87.55-2.86c0-.88-.44-1.76-.77-2.64-.22-.88-.55-2.64-.55-2.64h3.52l.44 1.87 5.28-7.37"/>
            <path d="M77.55 37.89c.66.44 1.1 2.64 1.1 2.64H71.5l-2.09 8.91h-3.08s1.98-9.68 2.42-11.44c.11-.55.99-.44 2.53-.44h2.31c1.54.11 3.3-.11 3.96.33zm-14.41 4.4s.11-.55-.33-1.21c-.33-.55-.66-.66-1.65-.77-2.75-.11-2.64 1.87-2.64 1.87l4.62.11zM66 39.98c.44 1.43-.33 4.84-.33 4.84s-3.96-.11-6.16 0c-.66 0-1.43-.11-1.65.22-.33.44.11 1.1.44 1.43.33.33 1.1.33 1.32.44 1.76.22 5.39.11 5.39.11l-.66 2.86s-5.17.22-7.81-.33c-.55-.11-.99-.33-1.32-.77-.11-.11-.22-.22-.22-.33-.11-.11-.22-.44-.33-.66-.55-1.54.11-4.62.77-6.27.11-.22.22-.44.22-.66.11-.22.22-.55.33-.66.11-.11.11-.22.22-.22.11-.11.22-.22.22-.33.22-.33.55-.44.88-.77 1.1-.77 3.08-1.43 5.39-1.21.88.11 2.2.44 2.86 1.32.33.11.33.55.44.99zm-14.3-2.31h2.97s-1.65 8.03-2.53 11.88h-3.52c-2.42 0-4.62.33-5.5-1.43-.88-1.65 0-4.51.33-6.38.33-1.32.88-4.07.88-4.07h3.08s-.88 4.29-1.21 6.38c-.11.77-.44 1.43-.11 2.09.22.55.66.55 1.76.55h1.54l2.31-9.02zm-14.08 5.72c.33-1.1.77-2.31.77-3.41-.11-1.1-.99-2.09-1.54-2.31-1.76-.66-3.41.22-4.07.99-.88.88-1.1 1.98-1.43 3.52-.22 1.1-.44 2.31 0 3.08.77 1.54 2.97 1.21 5.39 1.21.22-.88.55-1.98.88-3.08zm4.18-4.4c.33 2.53-.99 5.28-1.87 7.7.88.11 1.76 0 1.76.11.11.11-.66 2.86-.88 2.86h-4.18c-3.3 0-6.49.22-8.03-1.43-.66-.66-1.1-1.87-1.21-2.64-.22-1.32 0-2.86.33-4.07.33-1.1.66-2.2 1.21-3.08 1.43-2.42 3.85-4.29 7.92-3.85.77.11 1.98.44 2.64.88l.22.22c.99.44 1.87 1.98 2.09 3.3zm-14.74-1.32c-.22.88-.44 1.98-.66 2.86h-3.3c.22-.99.44-1.98.77-2.86h3.19zm-4.07 3.74h3.19c-.44 2.31-1.21 6.16-1.87 8.8-.44 1.65-.66 2.86-1.76 3.74-.11.11-.11 0-.22.11-.22.22-1.1.44-1.65.44-.88.11-1.87 0-2.86 0 .22-.99.55-2.2.88-3.08 2.53.33 2.64-2.09 3.08-4.4.22-1.43.99-5.06 1.21-5.61zM15.4 47.46v.22c-1.21 2.31-3.3 3.74-6.27 3.74-1.43 0-2.75-.33-3.63-.77-1.87-.88-3.41-2.42-4.29-4.07-1.21-2.42-1.43-5.72 1.1-8.25 0 0-.33.55-.22.55l-.11.22c-1.87 5.83 3.85 10.78 9.35 10.23 1.32-.11 3.08-.77 4.07-1.87"/>
            <path d="M12.1 45.04c1.43 0 2.86-.66 3.74-1.54-.77 1.87-2.97 3.19-5.83 2.75-2.42-.33-4.84-2.75-5.06-5.28-.22-1.76.44-2.86 1.54-4.18-.33.66-.44 1.21-.55 1.54-.44 3.96 2.97 6.71 6.16 6.71"/>
            <path d="M15.62 40.2c-.22.55-1.43 1.43-1.98 1.54-2.2.44-3.63-.55-4.29-1.76-.11-.22-.33-.66-.33-.77-.33-.99-.11-2.42.66-3.19-.22.77-.33 1.54-.11 2.09.11.33.33.88.55 1.21.44.66.77.77 1.32 1.21.22.11.55.33.66.33.55.22 1.65.66 3.52-.66"/>
        </g>
        <g fill="#4285F4" fill-rule="nonzero">
            <path d="M43.34 1.26h-4.4c-.11 0-.22.11-.22.22L36.3 15.12 30.58 1.37c0-.11-.11-.22-.22-.22h-4.29c-.11 0-.22.11-.22.22l-3.85 22c0 .11 0 .11.11.22 0 .11.11.11.22.11h4.4c.11 0 .22-.11.22-.22l2.42-13.64 5.72 13.75c0 .11.11.22.22.22h4.29c.11 0 .22-.11.22-.22L43.56 1.7c0-.11 0-.11-.11-.22.11-.22 0-.22-.11-.22zM64.46 9.29c-.11-1.65-.44-3.08-1.1-4.4-.66-1.32-1.54-2.31-2.75-2.97-1.1-.66-2.53-1.1-3.96-1.1-1.65 0-3.19.33-4.62.99-1.43.77-2.64 1.76-3.74 3.3-.99 1.43-1.76 3.08-2.31 5.06-.44 1.87-.66 3.63-.55 5.39.11 1.65.44 3.08 1.1 4.4.66 1.32 1.54 2.31 2.75 2.97 1.1.66 2.53.99 3.96 1.1h.22c1.54 0 2.97-.33 4.29-.99 1.43-.66 2.64-1.76 3.63-3.19.99-1.43 1.76-3.08 2.31-4.95.66-1.87.88-3.74.77-5.61zm-8.25-4.07h.22c1.1 0 1.87.44 2.42 1.32.55.88.77 2.2.66 3.85l-.11 1.43-.11.77c-.33 2.31-.99 4.07-1.98 5.39-.99 1.21-2.2 1.76-3.74 1.76-1.1 0-1.87-.44-2.42-1.32-.55-.88-.77-2.2-.66-3.96.11-2.97.77-5.28 1.76-6.93.99-1.54 2.31-2.31 3.96-2.31z"/>
        </g>
    </g>
</svg>
