<svg xmlns="http://www.w3.org/2000/svg" width="87" height="43" viewBox="0 0 87 43">
    <g fill="none" fill-rule="evenodd">
        <path d="M-7-31H93V69H-7z"/>
        <g fill="#4285F4" fill-rule="nonzero">
            <path d="M83.2 2.2h3.6s-6.7 9.1-7.3 9.9c-.2.2-.4.5-.6.8-.3.8-.7 2.6-.7 2.6h-3.3s.5-1.8.5-2.8c0-.9-.5-1.7-.7-2.6-.2-.9-.6-2.6-.6-2.6h3.4l.5 1.9 5.2-7.2"/>
            <path d="M76.3 4.1c.7.4 1.1 2.6 1.1 2.6s-3.5.1-5.4.1h-1.6l-2 8.7h-3s1.9-9.4 2.3-11.1c.1-.6 1-.5 2.4-.5h2.3c1.4-.1 3.2-.2 3.9.2zM62.1 8.3s.1-.6-.3-1.2-.7-.7-1.6-.7c-2.6-.1-2.6 1.9-2.6 1.9h4.5zM65 6.1c.4 1.4-.4 4.7-.4 4.7s-3.9-.1-6 0c-.7 0-1.4-.1-1.6.2-.3.4.1 1.1.4 1.4.4.3 1.1.4 1.3.4 1.7.2 5.3.1 5.3.1l-.6 2.8s-5.1.3-7.6-.4c-.5-.1-1-.4-1.3-.7-.1-.1-.2-.2-.2-.3-.1-.1-.3-.4-.3-.6-.6-1.5.1-4.5.7-6.1L55 7c.1-.2.2-.5.3-.7.1-.1.1-.2.2-.3l.3-.3c.2-.3.5-.5.8-.7 1.1-.8 3-1.4 5.3-1.2.9.1 2.2.4 2.8 1.3.1.2.2.6.3 1zM51 3.8h3s-1.6 7.8-2.5 11.6h-3.4c-2.4 0-4.5.3-5.4-1.4-.9-1.7 0-4.4.4-6.2.3-1.3.9-4 .9-4h3.1S46.2 8 45.9 10c-.1.7-.4 1.4-.1 2 .3.5.6.6 1.8.6h1.5L51 3.8zM37.1 9.5c.3-1.1.8-2.3.7-3.3-.1-1.1-1-2-1.5-2.2-1.7-.6-3.3.2-4 .9-.8.9-1.1 2-1.4 3.4-.2 1.1-.4 2.2 0 3 .7 1.5 2.9 1.2 5.3 1.2.4-.9.7-2 .9-3zm4.2-4.4c.3 2.5-1 5.2-1.9 7.5.9.1 1.7 0 1.8.1.1.1-.6 2.8-.8 2.8h-4.1c-3.3 0-6.3.2-7.9-1.4-.6-.7-1.1-1.8-1.2-2.6-.2-1.3 0-2.8.4-4 .3-1.1.6-2.1 1.2-3.1C30.2 2 32.6.2 36.5.6c.8.1 1.9.4 2.6.8 0 0 .2.2.3.2.8.8 1.7 2.2 1.9 3.5zM26.8 3.8c-.2.9-.4 1.9-.6 2.8H23c.3-1 .4-2 .7-2.8h3.1zm-4 3.7H26c-.4 2.3-1.2 6-1.9 8.6-.4 1.6-.7 2.8-1.8 3.6-.1.1-.2 0-.2.1-.2.2-1.1.4-1.6.5-.8.1-1.8 0-2.8 0 .3-1 .6-2.2.8-3 2.5.3 2.6-2.1 3-4.3.3-1.5 1.2-5 1.3-5.5zM15.4 13.4l-.1.2c-1.2 2.3-3.2 3.6-6.1 3.7-1.4 0-2.7-.3-3.5-.7-1.8-.8-3.4-2.4-4.2-4C.3 10.3.1 7 2.6 4.6l-.3.5-.1.2C.4 11 6 15.8 11.4 15.3c1.4-.1 3-.8 4-1.9"/>
            <path d="M12.2 11.1c1.4 0 2.8-.6 3.6-1.5-.7 1.9-2.9 3.1-5.7 2.7-2.4-.3-4.7-2.7-4.9-5.2C5 5.3 5.6 4.3 6.7 3c-.4.7-.5 1.2-.5 1.5-.5 3.8 2.9 6.6 6 6.6"/>
            <path d="M15.7 6.4c-.2.5-1.4 1.4-2 1.5-2.1.5-3.5-.6-4.2-1.7-.1-.2-.3-.6-.3-.8-.3-.9-.2-2.4.7-3.1-.2.7-.3 1.5-.2 2.1.1.3.3.9.6 1.2.4.6.7.8 1.3 1.1.3.2.5.3.6.3.5.2 1.6.6 3.5-.6"/>
            <g>
                <path d="M26.7 36.9h-5.4l-1 5.7H17l2.5-14.2h9.2l-.4 2.6h-5.9l-.6 3.3h5.4zM35.8 37.5H34l-.9 5h-3.3l2.5-14.2h5c1.6 0 2.8.4 3.7 1.1.9.8 1.3 1.8 1.2 3.1-.1 1-.4 1.9-.9 2.6-.5.7-1.2 1.2-2.2 1.6l1.9 5.7v.2h-3.6l-1.6-5.1zm-1.4-2.6h2c.5 0 1-.1 1.4-.4.4-.3.7-.6.8-1.1.2-.5.2-.9.1-1.3-.1-.7-.6-1.1-1.4-1.1H35l-.6 3.9zM54.1 36.5h-5.2l-.6 3.4h6.2l-.5 2.6h-9.5L47 28.3h9.5L56 31h-6.2l-.5 3h5.2zM67.1 36.5h-5.2l-.6 3.4h6.2l-.5 2.6h-9.5L60 28.3h9.5L69 31h-6.2l-.5 3h5.2z"/>
            </g>
        </g>
    </g>
</svg>
