<svg id="Layer_1" data-name="Layer 1" xmlns="http://www.w3.org/2000/svg" xmlns:xlink="http://www.w3.org/1999/xlink" viewBox="0 0 110 110"><defs><style>.cls-1,.cls-5{fill:url(#linear-gradient);}.cls-1{clip-rule:evenodd;}.cls-2,.cls-4{fill:#679e63;}.cls-3{fill:#333;}.cls-3,.cls-4,.cls-5{fill-rule:evenodd;}.cls-6{clip-path:url(#clip-path);}.cls-7{fill:none;}.cls-8{fill:url(#linear-gradient-3);}.cls-9{fill:url(#linear-gradient-4);}.cls-10{fill:url(#linear-gradient-5);}.cls-11{fill:url(#linear-gradient-6);}.cls-12{fill:url(#linear-gradient-7);}.cls-13{fill:url(#linear-gradient-8);}</style><linearGradient id="linear-gradient" x1="45.21" y1="44.99" x2="36.07" y2="63.63" gradientUnits="userSpaceOnUse"><stop offset="0" stop-color="#3f873f"/><stop offset="0.33" stop-color="#3f8b3d"/><stop offset="0.64" stop-color="#3e9637"/><stop offset="0.93" stop-color="#3da92e"/><stop offset="1" stop-color="#3dae2b"/></linearGradient><clipPath id="clip-path"><path id="_Clipping_Path_" data-name="&lt;Clipping Path&gt;" class="cls-1" d="M41.71,40.64a1.21,1.21,0,0,0-1.22,0L30.37,46.48a1.22,1.22,0,0,0-.61,1.06V59.22a1.22,1.22,0,0,0,.61,1.06l10.12,5.84a1.21,1.21,0,0,0,1.22,0l10.11-5.84a1.22,1.22,0,0,0,.61-1.06V47.54a1.22,1.22,0,0,0-.61-1.06Z"/></clipPath><linearGradient id="linear-gradient-3" x1="39.56" y1="54.74" x2="65.2" y2="35.8" gradientUnits="userSpaceOnUse"><stop offset="0.14" stop-color="#3f873f"/><stop offset="0.4" stop-color="#529f44"/><stop offset="0.71" stop-color="#63b649"/><stop offset="0.91" stop-color="#6abf4b"/></linearGradient><linearGradient id="linear-gradient-4" x1="29.4" y1="38.54" x2="52.79" y2="38.54" gradientUnits="userSpaceOnUse"><stop offset="0.09" stop-color="#6abf4b"/><stop offset="0.29" stop-color="#63b649"/><stop offset="0.6" stop-color="#529f44"/><stop offset="0.86" stop-color="#3f873f"/></linearGradient><linearGradient id="linear-gradient-5" x1="29.4" y1="53.38" x2="52.79" y2="53.38" xlink:href="#linear-gradient-4"/><linearGradient id="linear-gradient-6" x1="29.4" y1="60.05" x2="52.79" y2="60.05" xlink:href="#linear-gradient-4"/><linearGradient id="linear-gradient-7" x1="29.4" y1="63.07" x2="52.79" y2="63.07" xlink:href="#linear-gradient-4"/><linearGradient id="linear-gradient-8" x1="56.2" y1="44.44" x2="41.77" y2="73.86" xlink:href="#linear-gradient"/></defs><title>node</title><path class="cls-2" d="M54.39,90.65a2.11,2.11,0,0,1-1-.26l-3.2-1.9c-.47-.27-.24-.36-.08-.42a6.65,6.65,0,0,0,1.44-.65.26.26,0,0,1,.24,0l2.46,1.46a.32.32,0,0,0,.3,0l9.59-5.53a.3.3,0,0,0,.15-.26V72a.3.3,0,0,0-.15-.26l-9.59-5.53a.32.32,0,0,0-.3,0l-9.58,5.53a.31.31,0,0,0-.15.26V83.1a.3.3,0,0,0,.15.26l2.63,1.51c1.42.72,2.3-.12,2.3-1V73a.27.27,0,0,1,.27-.28h1.22a.28.28,0,0,1,.28.28V83.9a2.66,2.66,0,0,1-2.84,3,4.1,4.1,0,0,1-2.21-.6l-2.52-1.45a2,2,0,0,1-1-1.75V72a2,2,0,0,1,1-1.75l9.59-5.54a2.13,2.13,0,0,1,2,0L65,70.28A2,2,0,0,1,66,72V83.1a2,2,0,0,1-1,1.75L55.4,90.39A2.08,2.08,0,0,1,54.39,90.65Z"/><path class="cls-2" d="M57.35,83c-4.19,0-5.07-1.93-5.07-3.54a.27.27,0,0,1,.27-.28h1.24a.28.28,0,0,1,.28.24c.19,1.26.75,1.9,3.28,1.9,2,0,2.88-.46,2.88-1.53,0-.62-.24-1.08-3.38-1.39-2.62-.26-4.25-.84-4.25-2.94,0-1.93,1.63-3.08,4.37-3.08,3.07,0,4.59,1.06,4.78,3.35a.27.27,0,0,1-.07.21.27.27,0,0,1-.2.09H60.23a.28.28,0,0,1-.27-.22c-.3-1.32-1-1.75-3-1.75-2.21,0-2.46.77-2.46,1.35s.3.9,3.28,1.29,4.34.94,4.34,3S60.39,83,57.35,83Z"/><path class="cls-2" d="M71.18,71.42a1.85,1.85,0,1,1-1.85-1.85A1.85,1.85,0,0,1,71.18,71.42Zm-3.4,0a1.55,1.55,0,1,0,1.55-1.55A1.55,1.55,0,0,0,67.78,71.42Zm.86-1h.71c.25,0,.73,0,.73.54a.48.48,0,0,1-.39.51c.28,0,.3.21.34.47a2,2,0,0,0,.11.55H69.7c0-.1-.08-.63-.08-.66a.19.19,0,0,0-.22-.17H69v.83h-.4Zm.39.91h.32a.28.28,0,0,0,.32-.3c0-.28-.2-.28-.31-.28H69Z"/><path class="cls-3" d="M24.69,47.35a1.22,1.22,0,0,0-.61-1.06L13.91,40.44a1.11,1.11,0,0,0-.56-.17h-.1a1.11,1.11,0,0,0-.56.17L2.52,46.29a1.23,1.23,0,0,0-.62,1.06l0,15.76a.61.61,0,0,0,.91.53l6-3.46a1.23,1.23,0,0,0,.62-1.07V51.75a1.22,1.22,0,0,1,.61-1.06l2.58-1.48A1.22,1.22,0,0,1,13.3,49a1.19,1.19,0,0,1,.61.17l2.57,1.48a1.23,1.23,0,0,1,.62,1.06v7.36a1.23,1.23,0,0,0,.61,1.07l6,3.46a.62.62,0,0,0,.62,0,.6.6,0,0,0,.3-.53Z"/><path class="cls-3" d="M73.62,25.69a.63.63,0,0,0-.61,0,.61.61,0,0,0-.31.53v15.6a.44.44,0,0,1-.21.38.47.47,0,0,1-.43,0l-2.55-1.47a1.23,1.23,0,0,0-1.23,0L58.11,46.61a1.22,1.22,0,0,0-.61,1.06V59.42a1.22,1.22,0,0,0,.61,1.06l10.17,5.87a1.23,1.23,0,0,0,1.23,0l10.17-5.87a1.23,1.23,0,0,0,.62-1.06V30.14a1.23,1.23,0,0,0-.63-1.07Zm-1,29.87a.3.3,0,0,1-.15.26l-3.49,2a.34.34,0,0,1-.31,0l-3.49-2a.29.29,0,0,1-.16-.26v-4a.3.3,0,0,1,.16-.27l3.49-2a.34.34,0,0,1,.31,0l3.49,2a.32.32,0,0,1,.15.27Z"/><path class="cls-3" d="M107.49,51.42a1.24,1.24,0,0,0,.61-1.06V47.51a1.24,1.24,0,0,0-.61-1.06L97.38,40.58a1.23,1.23,0,0,0-1.23,0L86,46.45a1.23,1.23,0,0,0-.61,1.06V59.25A1.21,1.21,0,0,0,86,60.32l10.1,5.76a1.27,1.27,0,0,0,1.21,0l6.11-3.4a.61.61,0,0,0,.31-.53.59.59,0,0,0-.3-.54L93.18,55.75a.63.63,0,0,1-.31-.54V51.53a.61.61,0,0,1,.31-.53l3.19-1.83a.61.61,0,0,1,.61,0L100.17,51a.6.6,0,0,1,.3.53v2.9a.61.61,0,0,0,.31.53.62.62,0,0,0,.62,0Z"/><path class="cls-4" d="M96.61,50.87a.25.25,0,0,1,.24,0l2,1.13a.24.24,0,0,1,.12.2v2.25a.24.24,0,0,1-.12.21l-2,1.12a.21.21,0,0,1-.24,0l-2-1.12a.24.24,0,0,1-.11-.21V52.2a.23.23,0,0,1,.11-.2Z"/><path id="_Clipping_Path_2" data-name="&lt;Clipping Path&gt;" class="cls-5" d="M41.71,40.64a1.21,1.21,0,0,0-1.22,0L30.37,46.48a1.22,1.22,0,0,0-.61,1.06V59.22a1.22,1.22,0,0,0,.61,1.06l10.12,5.84a1.21,1.21,0,0,0,1.22,0l10.11-5.84a1.22,1.22,0,0,0,.61-1.06V47.54a1.22,1.22,0,0,0-.61-1.06Z"/><g class="cls-6"><path class="cls-7" d="M40.47,40.64,30.33,46.48a1.26,1.26,0,0,0-.65,1.06V59.22A1.2,1.2,0,0,0,30,60L41.38,40.52A1.2,1.2,0,0,0,40.47,40.64Z"/><path class="cls-7" d="M41.44,66.24a1.69,1.69,0,0,0,.28-.12l10.13-5.84a1.26,1.26,0,0,0,.63-1.06V47.54a1.19,1.19,0,0,0-.37-.85Z"/><path class="cls-8" d="M51.84,46.48,41.7,40.64a1,1,0,0,0-.32-.12L30,60a1.54,1.54,0,0,0,.34.28l10.16,5.84a1.26,1.26,0,0,0,.95.12L52.11,46.69A1.39,1.39,0,0,0,51.84,46.48Z"/><path class="cls-7" d="M52.48,59.22V47.54a1.25,1.25,0,0,0-.64-1.06L41.7,40.64a1.07,1.07,0,0,0-.38-.13l11.12,19A.86.86,0,0,0,52.48,59.22Z"/><path class="cls-7" d="M30.33,46.48a1.26,1.26,0,0,0-.65,1.06V59.22a1.26,1.26,0,0,0,.65,1.06l10.16,5.84a1.2,1.2,0,0,0,.78.15L30.39,46.44Z"/><polygon class="cls-9" points="40.15 38.5 40.01 38.58 40.2 38.58 40.15 38.5"/><path class="cls-10" d="M51.85,60.28a1.28,1.28,0,0,0,.59-.78l-11.12-19a1.2,1.2,0,0,0-.85.13l-10.08,5.8L41.27,66.27a1.2,1.2,0,0,0,.45-.15Z"/><polygon class="cls-11" points="52.79 60.09 52.72 59.98 52.72 60.13 52.79 60.09"/><path class="cls-12" d="M51.85,60.28,41.72,66.12a1.2,1.2,0,0,1-.45.15l.21.37,11.24-6.51V60l-.28-.48A1.28,1.28,0,0,1,51.85,60.28Z"/><path class="cls-13" d="M51.85,60.28,41.72,66.12a1.2,1.2,0,0,1-.45.15l.21.37,11.24-6.51V60l-.28-.48A1.28,1.28,0,0,1,51.85,60.28Z"/></g></svg>