<svg xmlns="http://www.w3.org/2000/svg" width="83" height="63" viewBox="0 0 83 63">
    <g fill="none" fill-rule="evenodd">
        <path d="M-15.906-25h110V85h-110V-25z"/>
        <path fill="#4285F4" fill-rule="nonzero" d="M71.104 36.38c-2.86 0-5.39.66-7.48 1.76-.77-1.54-1.54-2.86-1.65-3.85-.11-1.21-.33-1.87-.11-3.3.22-1.43.99-3.41.99-3.52 0-.11-.22-.88-1.87-.88-1.65 0-3.08.33-3.3.77-.11.44-.44 1.43-.66 2.42-.33 1.54-3.3 6.93-5.06 9.68-.55-1.1-1.1-2.09-1.1-2.86-.11-1.21-.33-1.87-.11-3.3.22-1.43.99-3.41.99-3.52 0-.11-.22-.88-1.87-.88-1.65 0-3.08.33-3.3.77-.11.44-.33 1.43-.66 2.42s-4.4 10.01-5.39 12.32c-.55 1.21-.99 2.2-1.32 2.75-.33.66 0 0 0 .11-.33.55-.44.88-.44.88-.22.44-.44.77-.55.77-.11 0-.22-1.1 0-2.53.55-3.08 2.09-8.03 1.98-8.14 0-.11.22-.99-.99-1.32-1.21-.44-1.65.33-1.65.33-.11 0-.22.22-.22.22s1.32-5.5-2.53-5.5c-2.42 0-5.72 2.64-7.26 4.95-.99.55-3.19 1.76-5.5 3.08-.88.44-1.76.99-2.64 1.43l-.22-.22c-4.62-4.95-13.2-8.36-12.76-15.07.11-2.42.99-8.8 16.39-16.39 12.65-6.27 22.77-4.62 24.53-.77 2.53 5.5-5.39 15.73-18.59 17.16-5.06.55-7.59-1.32-8.25-2.09-.66-.77-.77-.77-1.1-.66-.44.22-.11.88 0 1.32.44.99 1.98 2.86 4.73 3.74 2.42.77 8.25 1.21 15.4-1.54 7.92-3.08 14.19-11.66 12.32-18.81-1.87-7.26-13.97-9.68-25.3-5.61-6.82 2.42-14.19 6.16-19.47 11.11-6.27 5.83-7.26 11-6.93 13.09 1.43 7.59 11.99 12.54 16.17 16.28-.22.11-.44.22-.55.33-2.09.99-10.12 5.17-12.1 9.68-2.31 5.06.33 8.58 2.09 9.13 5.39 1.54 10.89-1.21 13.86-5.61 2.97-4.4 2.64-10.23 1.21-12.87v-.11l1.65-.99c1.1-.66 2.09-1.21 3.08-1.76-.55 1.43-.88 3.08-1.1 5.5-.22 2.86.99 6.49 2.42 8.03.66.66 1.54.66 1.98.66 1.76 0 2.53-1.43 3.52-3.19 1.1-2.2 2.09-4.62 2.09-4.62s-1.21 6.71 2.09 6.71c1.21 0 2.42-1.54 2.97-2.42l.11-.11c.11-.11.11-.22.22-.33.44-.88 1.54-2.75 3.19-5.94 2.09-4.07 4.07-9.24 4.07-9.24s.22 1.21.77 3.3c.33 1.21 1.1 2.53 1.76 3.85-.44.66-.77 1.1-.77 1.1-.44.55-.77 1.1-1.32 1.65-1.65 1.98-3.63 4.18-3.85 4.84-.33.77-.22 1.32.33 1.76.44.33 1.21.44 1.98.33 1.54-.11 2.53-.44 3.08-.66.77-.33 1.76-.77 2.64-1.32 1.65-1.21 2.64-2.86 2.53-5.17 0-1.21-.44-2.42-.99-3.63.11-.22.33-.44.44-.66 2.53-3.74 4.51-7.81 4.51-7.81s.22 1.21.77 3.3c.33 1.1.88 2.2 1.43 3.3-2.42 1.98-3.85 4.18-4.4 5.72-.99 2.75-.22 3.96 1.21 4.29.66.11 1.54-.11 2.2-.44.88-.22 1.87-.77 2.75-1.43 1.65-1.21 3.19-2.86 3.08-5.06 0-.99-.33-2.09-.66-2.97 1.98-.88 4.62-1.32 8.03-.88 7.15.88 8.58 5.28 8.36 7.15-.22 1.87-1.76 2.86-2.31 3.19-.55.33-.66.44-.66.66.11.33.33.33.77.22.55-.11 3.74-1.54 3.96-4.95 0-4.29-4.18-9.13-11.66-9.13zm-57.09 18.37c-2.53 2.75-6.05 3.85-7.59 2.97-1.65-.99-.99-5.06 2.09-7.92 1.87-1.76 4.4-3.41 5.94-4.4.33-.22.88-.55 1.54-.99.11-.11.22-.11.22-.11.11-.11.22-.11.44-.22 1.1 4.07 0 7.81-2.64 10.67zm18.48-12.54c-.88 2.2-2.75 7.7-3.85 7.37-.99-.22-1.54-4.4-.22-8.58.66-2.09 2.2-4.51 2.97-5.5 1.43-1.54 2.86-2.09 3.3-1.43.44.88-1.65 6.82-2.2 8.14zm15.18 7.26c-.33.22-.77.33-.88.22-.11-.11.11-.33.11-.33s1.87-2.09 2.64-2.97c.44-.55.99-1.21 1.54-1.87v.22c.11 2.42-2.31 4.07-3.41 4.73zm11.77-2.64c-.33-.22-.22-.88.66-2.86.33-.77 1.21-2.09 2.64-3.41.22.55.33.99.22 1.43.11 3.19-2.09 4.4-3.52 4.84z"/>
    </g>
</svg>
