<svg xmlns="http://www.w3.org/2000/svg" width="76" height="57" viewBox="0 0 76 57">
    <g fill="none" fill-rule="evenodd">
        <path d="M-14-23H86V77H-14V-23z"/>
        <path fill="#4285F4" fill-rule="nonzero" d="M65.1 32.8c-2.6 0-4.9.6-6.8 1.6-.7-1.4-1.4-2.6-1.5-3.5-.1-1.1-.3-1.7-.1-3 .2-1.3.9-3.1.9-3.2 0-.1-.2-.8-1.7-.8s-2.8.3-3 .7c-.1.4-.4 1.3-.6 2.2-.3 1.4-3 6.3-4.6 8.8-.5-1-1-1.9-1-2.6-.1-1.1-.3-1.7-.1-3 .2-1.3.9-3.1.9-3.2 0-.1-.2-.8-1.7-.8s-2.8.3-3 .7c-.1.4-.3 1.3-.6 2.2-.3.9-4 9.1-4.9 11.2-.5 1.1-.9 2-1.2 2.5-.3.6 0 0 0 .1-.3.5-.4.8-.4.8-.2.4-.4.7-.5.7-.1 0-.2-1 0-2.3.5-2.8 1.9-7.3 1.8-7.4 0-.1.2-.9-.9-1.2-1.1-.4-1.5.3-1.5.3-.1 0-.2.2-.2.2s1.2-5-2.3-5c-2.2 0-5.2 2.4-6.6 4.5-.9.5-2.9 1.6-5 2.8-.8.4-1.6.9-2.4 1.3l-.2-.2c-4.2-4.5-12-7.6-11.6-13.7.1-2.2.9-8 14.9-14.9 11.5-5.7 20.7-4.2 22.3-.7 2.3 5-4.9 14.3-16.9 15.6-4.6.5-6.9-1.2-7.5-1.9-.6-.7-.7-.7-1-.6-.4.2-.1.8 0 1.2.4.9 1.8 2.6 4.3 3.4 2.2.7 7.5 1.1 14-1.4 7.2-2.8 12.9-10.6 11.2-17.1C45.9.5 34.9-1.7 24.6 2 18.4 4.2 11.7 7.6 6.9 12.1 1.2 17.4.3 22.1.6 24c1.3 6.9 10.9 11.4 14.7 14.8-.2.1-.4.2-.5.3-1.9.9-9.2 4.7-11 8.8-2.1 4.6.3 7.8 1.9 8.3 4.9 1.4 9.9-1.1 12.6-5.1 2.7-4 2.4-9.3 1.1-11.7v-.1l1.5-.9c1-.6 1.9-1.1 2.8-1.6-.5 1.3-.8 2.8-1 5-.2 2.6.9 5.9 2.2 7.3.6.6 1.4.6 1.8.6 1.6 0 2.3-1.3 3.2-2.9 1-2 1.9-4.2 1.9-4.2s-1.1 6.1 1.9 6.1c1.1 0 2.2-1.4 2.7-2.2l.1-.1c.1-.1.1-.2.2-.3.4-.8 1.4-2.5 2.9-5.4 1.9-3.7 3.7-8.4 3.7-8.4s.2 1.1.7 3c.3 1.1 1 2.3 1.6 3.5-.4.6-.7 1-.7 1-.4.5-.7 1-1.2 1.5-1.5 1.8-3.3 3.8-3.5 4.4-.3.7-.2 1.2.3 1.6.4.3 1.1.4 1.8.3 1.4-.1 2.3-.4 2.8-.6.7-.3 1.6-.7 2.4-1.2 1.5-1.1 2.4-2.6 2.3-4.7 0-1.1-.4-2.2-.9-3.3.1-.2.3-.4.4-.6 2.3-3.4 4.1-7.1 4.1-7.1s.2 1.1.7 3c.3 1 .8 2 1.3 3-2.2 1.8-3.5 3.8-4 5.2-.9 2.5-.2 3.6 1.1 3.9.6.1 1.4-.1 2-.4.8-.2 1.7-.7 2.5-1.3 1.5-1.1 2.9-2.6 2.8-4.6 0-.9-.3-1.9-.6-2.7 1.8-.8 4.2-1.2 7.3-.8 6.5.8 7.8 4.8 7.6 6.5-.2 1.7-1.6 2.6-2.1 2.9-.5.3-.6.4-.6.6.1.3.3.3.7.2.5-.1 3.4-1.4 3.6-4.5 0-3.9-3.8-8.3-10.6-8.3zM13.2 49.5C10.9 52 7.7 53 6.3 52.2c-1.5-.9-.9-4.6 1.9-7.2 1.7-1.6 4-3.1 5.4-4 .3-.2.8-.5 1.4-.9.1-.1.2-.1.2-.1.1-.1.2-.1.4-.2 1 3.7 0 7.1-2.4 9.7zM30 38.1c-.8 2-2.5 7-3.5 6.7-.9-.2-1.4-4-.2-7.8.6-1.9 2-4.1 2.7-5 1.3-1.4 2.6-1.9 3-1.3.4.8-1.5 6.2-2 7.4zm13.8 6.6c-.3.2-.7.3-.8.2-.1-.1.1-.3.1-.3s1.7-1.9 2.4-2.7c.4-.5.9-1.1 1.4-1.7v.2c.1 2.2-2.1 3.7-3.1 4.3zm10.7-2.4c-.3-.2-.2-.8.6-2.6.3-.7 1.1-1.9 2.4-3.1.2.5.3.9.2 1.3.1 2.9-1.9 4-3.2 4.4z"/>
    </g>
</svg>
