<svg xmlns="http://www.w3.org/2000/svg" width="92" height="94" viewBox="0 0 92 94">
    <g fill="none" fill-rule="evenodd" transform="translate(-25 -28)">
        <path fill="#FFF" fill-rule="nonzero" d="M107.613 120.4H32.387c-3.183 0-5.787-2.633-5.787-5.852V35.252c0-3.219 2.604-5.852 5.787-5.852h75.226c3.183 0 5.787 2.633 5.787 5.852v79.296c0 3.219-2.604 5.852-5.787 5.852z" opacity=".1"/>
        <path fill="#FFF" fill-rule="nonzero" d="M107.903 119H32.387c-3.183 0-5.787-2.52-5.787-5.6v-11.2h86.8v11.2c0 3.08-2.315 5.6-5.497 5.6z" opacity=".1"/>
        <path fill="#FFF" fill-rule="nonzero" d="M113.4 51.8H26.6V35c0-3.08 2.604-5.6 5.787-5.6h75.226c3.183 0 5.787 2.52 5.787 5.6v16.8z" opacity=".2"/>
        <path fill="#FFF" fill-rule="nonzero" d="M108.861 121.8H32.54c-4.11 0-7.339-3.214-7.339-7.305v-79.19c0-4.09 3.229-7.305 7.339-7.305h76.322c4.11 0 7.339 3.214 7.339 7.305v79.19c0 3.798-3.229 7.305-7.339 7.305zM32.54 30.922c-2.349 0-4.404 2.046-4.404 4.383v79.19c0 2.337 2.055 4.383 4.404 4.383h76.322c2.349 0 4.404-2.046 4.404-4.383v-79.19c0-2.337-2.055-4.383-4.404-4.383H32.54z"/>
        <circle cx="95.9" cy="102.9" r="10.5" fill="#FFF" fill-rule="nonzero"/>
        <path fill="#FFF" fill-rule="nonzero" d="M72.72 43.4H37.88c-1.728 0-2.88-1.12-2.88-2.8 0-1.68 1.152-2.8 2.88-2.8h34.84c1.728 0 2.88 1.12 2.88 2.8 0 1.68-1.152 2.8-2.88 2.8z"/>
        <g fill="#FFF" fill-rule="nonzero" opacity=".8">
            <path d="M95.979 66.248H37.02c-.884 0-1.474-.597-1.474-1.493 0-.896.59-1.494 1.474-1.494H95.98c.884 0 1.474.598 1.474 1.494s-.59 1.493-1.474 1.493zM72.396 78.195H37.02c-.884 0-1.474-.598-1.474-1.494s.59-1.493 1.474-1.493h35.375c.884 0 1.474.597 1.474 1.493 0 .896-.59 1.494-1.474 1.494zM54.709 90.141H37.02c-.884 0-1.474-.597-1.474-1.493 0-.896.59-1.493 1.474-1.493H54.71c.884 0 1.473.597 1.473 1.493 0 .896-.59 1.493-1.473 1.493z"/>
        </g>
        <path d="M0 0h140v140H0z"/>
    </g>
</svg>
