<svg xmlns="http://www.w3.org/2000/svg" width="119" height="69" viewBox="0 0 119 69">
    <g fill="none" fill-rule="evenodd">
        <path fill="#FFF" fill-rule="nonzero" d="M56.708 58.708H38.917L43 47.625h9.333l4.375 11.083zm-13.416-2.916h9.333l-2.042-5.25h-5.25l-2.041 5.25z"/>
        <path fill="#FFF" fill-rule="nonzero" d="M54.667 57.25l-2.917-8.167h-7.583L41.25 57.25z" opacity=".3"/>
        <path fill="#FFF" fill-rule="nonzero" d="M64 58.708H31.917c-.875 0-1.459-.583-1.459-1.458s.584-1.458 1.459-1.458h32.375c.875 0 1.458.583 1.458 1.458s-.875 1.458-1.75 1.458z"/>
        <path fill="#FFF" fill-rule="nonzero" d="M111.25 60.75H71.875V38.292c0-1.75 1.167-2.917 2.917-2.917h33.541c1.75 0 2.917 1.167 2.917 2.917V60.75z" opacity=".4"/>
        <path fill="#FFF" fill-rule="nonzero" d="M116.792 67.167H66.333c-.875 0-1.458-.584-1.458-1.459 0-.875.583-1.458 1.458-1.458h50.459c.875 0 1.458.583 1.458 1.458s-.583 1.459-1.458 1.459z"/>
        <path fill="#FFF" fill-rule="nonzero" d="M5.083 66.875H20.25c1.458 0 2.917-1.167 2.917-2.917V42.083c0-1.458-1.167-2.916-2.917-2.916H5.083c-1.458 0-2.916 1.166-2.916 2.916v21.875c0 1.75 1.166 2.917 2.916 2.917z" opacity=".5"/>
        <path fill="#FFF" fill-rule="nonzero" d="M76.25 2.125H19.667c-3.792 0-7 3.208-7 7v30.042h7c2.041 0 3.5 1.458 3.5 3.5v6.416h48.708V38.875c0-2.042 1.458-3.5 3.5-3.5h7.875V9.417c0-4.084-3.208-7.292-7-7.292z" opacity=".3"/>
        <g fill="#FFF" fill-rule="nonzero">
            <path d="M112.708 62.208H70.417V38.292c0-2.334 2.041-4.375 4.375-4.375h33.541c2.334 0 4.375 2.041 4.375 4.375v23.916zm-39.375-2.916h36.459v-21c0-.875-.584-1.459-1.459-1.459H74.792c-.875 0-1.459.584-1.459 1.459v21zM20.25 68.333H5.083c-2.333 0-4.375-2.041-4.375-4.375V42.083c0-2.333 2.042-4.375 4.375-4.375H20.25c2.333 0 4.375 2.042 4.375 4.375v21.875c0 2.625-2.042 4.375-4.375 4.375zM5.083 40.917c-.875 0-1.458.583-1.458 1.458V64.25c0 .875.583 1.458 1.458 1.458H20.25c.875 0 1.458-.583 1.458-1.458V42.375c0-.875-.583-1.458-1.458-1.458H5.083z"/>
            <path d="M73.333 50.542H21.708v-7.875c0-1.167-.875-2.042-2.041-2.042h-8.459V9.417C11.208 4.75 15 .958 19.667.958H76.25c4.667 0 8.458 3.792 8.458 8.459v27.416h-9.333c-1.167 0-2.042.875-2.042 2.042v11.667zm-48.708-2.917h45.792v-8.75c0-2.625 2.333-4.958 4.958-4.958h6.417v-24.5c0-3.209-2.625-5.542-5.542-5.542H19.667c-3.209 0-5.542 2.625-5.542 5.542V38h5.542c2.625 0 4.958 2.333 4.958 4.958v4.667z"/>
        </g>
        <path fill="#4285F4" fill-rule="nonzero" d="M14.125 62.208h-2.917c-.875 0-1.458-.583-1.458-1.458s.583-1.458 1.458-1.458h2.917c.875 0 1.458.583 1.458 1.458s-.583 1.458-1.458 1.458z"/>
        <path fill="#4285F4" fill-rule="nonzero" d="M65.167 44.708H29.875c-.875 0-1.458-.583-1.458-1.458s.583-1.458 1.458-1.458h35.292c.875 0 1.458.583 1.458 1.458s-.583 1.458-1.458 1.458z" opacity=".8"/>
        <path d="M-13-39h140v140H-13z"/>
    </g>
</svg>
