<svg xmlns="http://www.w3.org/2000/svg" width="114" height="114" viewBox="0 0 114 114">
    <g fill="none" fill-rule="evenodd">
        <g fill="#FFF" fill-rule="nonzero" opacity=".9">
            <path d="M54.221 43.334v19.811c0 1.774-.29 3.253-.872 4.435-.581 1.183-1.453 2.366-2.325 3.253-.872.887-2.035 1.478-3.489 1.774-1.453.296-2.616.591-4.07.591-1.453 0-2.906-.295-4.36-.591-1.453-.296-2.325-1.183-3.488-1.774-1.162-.591-1.744-1.774-2.325-3.253-.582-1.182-.872-2.66-.872-4.435v-19.81h5.232v19.81c0 1.183 0 2.07.29 2.661.291.887.582 1.479 1.163 1.774.582.592 1.163.887 1.745 1.183.581.296 1.453.296 2.325.296.872 0 1.744 0 2.326-.296.58-.296 1.453-.591 1.744-1.183.581-.591.872-1.182 1.162-1.774.291-.887.291-1.774.291-2.66V43.333h5.523zM71.662 53.979l6.105-10.645h5.813l-8.72 14.489 9.01 14.784h-5.813l-6.104-10.94-6.105 10.94h-5.813l9.011-14.784-8.72-14.489h5.813z"/>
        </g>
        <path fill="#FFF" fill-rule="nonzero" d="M58.707 9.626c-25.667 0-46.667 21-46.667 46.667s21 46.667 46.667 46.667 46.667-21 46.667-46.667S84.665 9.626 58.707 9.626zm0 80.5c-18.667 0-33.833-15.166-33.833-33.833 0-18.667 15.166-33.833 33.833-33.833 18.667 0 33.833 15.166 33.833 33.833 0 18.667-15.166 33.833-33.833 33.833z" opacity=".1"/>
        <path fill="#FFF" fill-rule="nonzero" d="M58 35.08c-11.982 0-21.92 9.938-21.92 21.92 0 11.982 9.938 21.92 21.92 21.92 11.982 0 21.92-9.938 21.92-21.92 0-11.982-9.645-21.92-21.92-21.92zm0 30.98c-4.968 0-9.06-4.092-9.06-9.06 0-4.968 4.092-9.06 9.06-9.06 4.968 0 9.06 4.092 9.06 9.06 0 4.968-4.092 9.06-9.06 9.06z" opacity=".1"/>
        <g fill="#FFF" fill-rule="nonzero">
            <path d="M57.583 104.126c-26.381 0-47.834-21.452-47.834-47.833 0-26.38 21.453-47.833 47.834-47.833 26.38 0 47.833 21.452 47.833 47.833 0 26.38-21.452 47.833-47.833 47.833zm0-92.767c-24.642 0-44.935 20.293-44.935 44.934s20.293 44.934 44.935 44.934c24.641 0 44.934-20.293 44.934-44.934S82.514 11.359 57.583 11.359z"/>
            <path d="M57.583 20.635c-.87 0-1.45-.58-1.45-1.45V1.793c0-.87.58-1.45 1.45-1.45s1.45.58 1.45 1.45v17.394c0 .58-.58 1.45-1.45 1.45zM57.583 113.403c-.87 0-1.45-.58-1.45-1.45V94.56c0-.87.58-1.45 1.45-1.45s1.45.58 1.45 1.45v17.394c0 .58-.58 1.449-1.45 1.449zM19.606 59.482H2.212c-.87 0-1.45-.58-1.45-1.45s.58-1.45 1.45-1.45h17.394c.87 0 1.45.58 1.45 1.45s-.58 1.45-1.45 1.45zM112.374 59.482H94.98c-.87 0-1.45-.58-1.45-1.45s.58-1.45 1.45-1.45h17.394c.87 0 1.45.58 1.45 1.45s-.58 1.45-1.45 1.45z"/>
        </g>
        <path d="M-12-13h140v140H-12z"/>
    </g>
</svg>
